<?xml version="1.0" standalone="no"?>
<!DOCTYPE svg PUBLIC "-//W3C//DTD SVG 20010904//EN"
 "http://www.w3.org/TR/2001/REC-SVG-20010904/DTD/svg10.dtd">
<svg version="1.0" xmlns="http://www.w3.org/2000/svg"
 width="225.000000pt" height="225.000000pt" viewBox="0 0 225.000000 225.000000"
 preserveAspectRatio="xMidYMid meet">
<metadata>
Created by potrace 1.16, written by Peter Selinger 2001-2019
</metadata>
<g transform="translate(0.000000,225.000000) scale(0.100000,-0.100000)"
fill="#000000" stroke="none">
<path d="M333 1348 c4 -211 7 -428 7 -483 0 -55 4 -106 8 -112 5 -7 93 -31
198 -53 104 -23 330 -72 503 -110 172 -39 317 -68 321 -65 20 12 35 320 35
723 0 346 -2 424 -14 431 -7 5 -113 12 -235 15 -121 4 -351 14 -511 22 -159 7
-296 14 -304 14 -12 0 -13 -57 -8 -382z m852 312 c3 -6 -1 -7 -9 -4 -18 7 -21
14 -7 14 6 0 13 -4 16 -10z m-615 -84 c0 -2 3 -13 6 -23 6 -16 5 -16 -8 1 -15
19 -16 19 -27 -2 -15 -29 -14 -35 6 -28 9 4 20 1 25 -6 10 -17 10 -60 -1 -77
-8 -12 -12 -12 -25 -2 -9 8 -16 19 -16 25 0 6 5 4 10 -4 12 -19 33 0 28 26 -4
23 -28 31 -28 9 0 -9 -4 -13 -10 -10 -22 14 -1 95 25 95 8 0 15 -2 15 -4z m70
-15 c14 -28 13 -116 -3 -129 -21 -18 -37 2 -43 55 -9 73 21 120 46 74z m387
-53 c-3 -8 -6 -5 -6 6 -1 11 2 17 5 13 3 -3 4 -12 1 -19z m90 -40 c-2 -13 -4
-3 -4 22 0 25 2 35 4 23 2 -13 2 -33 0 -45z m103 42 c0 -5 -7 -7 -15 -4 -8 4
-15 8 -15 10 0 2 7 4 15 4 8 0 15 -4 15 -10z m46 -32 c-2 -32 -19 -48 -31 -29
-3 6 0 8 9 5 11 -4 14 2 12 30 -2 19 0 33 4 31 4 -3 7 -19 6 -37z m-781 -328
c12 -19 8 -109 -5 -125 -15 -18 -40 -3 -40 24 1 14 2 14 11 -2 12 -20 29 -14
29 10 0 9 -3 13 -7 10 -3 -4 -12 -2 -20 4 -13 12 -18 70 -6 82 10 10 31 8 38
-3z m69 -22 c2 -13 3 -45 3 -73 -2 -38 -6 -50 -19 -53 -25 -5 -37 32 -31 96 5
42 9 52 24 52 11 0 20 -9 23 -22z m461 -78 c3 -6 -1 -7 -9 -4 -10 4 -16 1 -16
-7 0 -7 -3 -10 -6 -6 -7 7 4 27 16 27 5 0 12 -4 15 -10z m38 -20 c-3 -11 -7
-20 -9 -20 -2 0 -4 9 -4 20 0 11 4 20 9 20 5 0 7 -9 4 -20z m34 -25 c-1 -19
-4 -30 -8 -23 -4 6 -15 8 -25 5 -14 -5 -13 -2 4 9 12 9 22 23 22 30 0 8 2 14
4 14 2 0 4 -16 3 -35z m-66 -12 c13 -16 12 -17 -3 -4 -10 7 -18 15 -18 17 0 8
8 3 21 -13z m-291 -24 c0 -27 -2 -29 -15 -15 -17 16 -20 30 -5 21 6 -3 7 1 4
9 -3 9 -1 16 5 16 6 0 11 -14 11 -31z m49 -6 c-1 -37 -1 -37 -8 -8 -7 28 -5
45 5 45 2 0 3 -17 3 -37z m241 -5 c0 -4 -6 -8 -14 -8 -8 0 -17 4 -20 8 -2 4 4
8 15 8 10 0 19 -4 19 -8z m50 -11 c11 -5 9 -6 -4 -4 -11 1 -21 9 -23 17 -3 10
-2 11 4 4 4 -6 15 -14 23 -17z m-189 -96 c0 -9 2 -40 4 -68 2 -29 -1 -53 -6
-53 -5 0 -9 5 -9 10 0 6 -9 10 -20 10 -16 0 -20 7 -20 30 0 31 16 41 26 15 10
-26 21 -16 16 15 -4 25 -7 28 -23 19 -22 -11 -26 4 -7 25 17 18 38 16 39 -3z
m403 3 c3 -8 2 -12 -4 -9 -6 3 -10 10 -10 16 0 14 7 11 14 -7z m-284 -13 c-8
-6 -18 -7 -22 -5 -4 3 -8 -6 -8 -20 0 -16 6 -26 15 -26 18 0 20 16 3 23 -8 3
-5 6 5 6 16 1 18 -7 16 -54 -2 -37 -7 -55 -15 -55 -7 0 -16 5 -19 10 -3 6 1
10 9 10 9 0 16 9 16 20 0 28 -18 25 -32 -5 -10 -23 -28 -26 -28 -4 0 6 4 8 8
5 5 -3 7 19 6 49 l-2 55 31 0 c24 0 28 -3 17 -9z m126 -29 c-3 -5 -1 -22 4
-38 8 -29 8 -29 9 9 1 23 5 36 11 32 14 -9 13 -135 -1 -135 -6 0 -9 7 -5 15 3
8 0 15 -7 15 -8 0 -6 4 3 10 13 8 12 10 -2 10 -10 0 -18 -4 -18 -10 0 -5 -6
-10 -13 -10 -9 0 -14 16 -16 45 -2 51 3 65 25 65 8 0 13 -4 10 -8z m-739 -8
c-3 -3 -12 -4 -19 -1 -8 3 -5 6 6 6 11 1 17 -2 13 -5z m110 -10 c-3 -3 -12 -4
-19 -1 -8 3 -5 6 6 6 11 1 17 -2 13 -5z m798 -4 c16 -7 13 -9 -17 -9 -21 -1
-38 4 -38 9 0 12 27 12 55 0z m-908 -6 c-3 -3 -12 -4 -19 -1 -8 3 -5 6 6 6 11
1 17 -2 13 -5z m98 -14 c-3 -5 -1 -10 6 -10 7 0 10 -3 6 -6 -9 -9 -28 6 -22
17 4 5 8 9 11 9 3 0 2 -4 -1 -10z m79 -5 c3 -9 0 -15 -8 -15 -7 0 -13 7 -13
15 0 8 4 15 8 15 4 0 9 -7 13 -15z m746 -7 c0 -5 -12 -9 -27 -9 l-28 -2 28 -4
c25 -4 27 -8 27 -50 0 -42 -2 -45 -22 -39 -13 3 -28 6 -35 6 -8 0 -12 18 -12
54 l1 54 34 -1 c19 -1 34 -5 34 -9z m-590 -33 c0 -8 -4 -15 -10 -15 -5 0 -10
7 -10 15 0 8 5 15 10 15 6 0 10 -7 10 -15z m170 -35 c0 -13 -7 -20 -20 -20
-13 0 -20 7 -20 20 0 13 7 20 20 20 13 0 20 -7 20 -20z m233 3 c-7 -2 -19 -2
-25 0 -7 3 -2 5 12 5 14 0 19 -2 13 -5z m-78 -61 c-11 -11 -27 17 -20 35 6 16
8 16 16 -6 5 -13 7 -26 4 -29z m-235 28 c0 -5 -2 -10 -4 -10 -3 0 -8 5 -11 10
-3 6 -1 10 4 10 6 0 11 -4 11 -10z m340 -31 c0 -4 -5 -11 -12 -15 -7 -5 -8 -3
-3 6 6 10 4 12 -8 7 -18 -7 -21 1 -10 29 6 16 7 16 20 -2 7 -10 13 -21 13 -25z
m-200 1 c0 -5 -2 -10 -4 -10 -3 0 -8 5 -11 10 -3 6 -1 10 4 10 6 0 11 -4 11
-10z"/>
<path d="M604 1525 c-8 -42 11 -94 27 -78 14 14 7 105 -8 110 -7 3 -15 -11
-19 -32z"/>
<path d="M452 1116 c2 -15 8 -26 13 -26 15 0 12 43 -3 48 -10 3 -13 -4 -10
-22z"/>
<path d="M522 1116 c1 -10 8 -17 13 -17 15 1 12 24 -3 29 -9 3 -13 -2 -10 -12z"/>
<path d="M522 1048 c2 -13 8 -23 13 -23 6 0 11 10 13 23 2 15 -2 22 -13 22
-11 0 -15 -7 -13 -22z"/>
<path d="M1258 693 c7 -3 16 -2 19 1 4 3 -2 6 -13 5 -11 0 -14 -3 -6 -6z"/>
<path d="M1291 684 c0 -11 3 -14 6 -6 3 7 2 16 -1 19 -3 4 -6 -2 -5 -13z"/>
<path d="M1925 1578 c-6 -31 -9 -34 -39 -30 -29 3 -34 1 -38 -23 -6 -29 15
-46 34 -27 7 7 17 8 28 2 13 -7 22 -5 31 7 10 12 11 17 3 20 -9 3 -9 12 -1 33
8 22 8 33 0 41 -9 9 -13 3 -18 -23z"/>
<path d="M1860 1586 c0 -17 27 -29 35 -16 4 6 3 15 0 20 -9 15 -35 12 -35 -4z"/>
<path d="M1735 1561 c-3 -10 -2 -26 2 -36 6 -18 7 -18 14 1 11 27 11 54 0 54
-5 0 -12 -8 -16 -19z"/>
<path d="M1790 1555 c0 -14 5 -25 10 -25 6 0 10 11 10 25 0 14 -4 25 -10 25
-5 0 -10 -11 -10 -25z"/>
<path d="M1734 1384 c-16 -37 -11 -88 8 -100 33 -20 65 95 36 124 -19 19 -28
14 -44 -24z"/>
<path d="M1430 1069 c0 -5 5 -7 10 -4 6 3 10 8 10 11 0 2 -4 4 -10 4 -5 0 -10
-5 -10 -11z"/>
<path d="M1425 890 c-8 -13 -1 -24 14 -19 6 3 7 10 2 18 -6 10 -10 10 -16 1z"/>
<path d="M720 550 c0 -5 4 -10 9 -10 5 0 17 -3 25 -6 12 -5 15 -2 10 10 -7 17
-44 22 -44 6z"/>
<path d="M338 543 c7 -3 16 -2 19 1 4 3 -2 6 -13 5 -11 0 -14 -3 -6 -6z"/>
<path d="M786 535 c4 -8 8 -15 10 -15 2 0 4 7 4 15 0 8 -4 15 -10 15 -5 0 -7
-7 -4 -15z"/>
<path d="M400 528 c14 -6 43 -13 65 -15 162 -15 335 -46 500 -89 15 -4 17 -3
5 4 -39 24 -352 85 -545 105 -42 5 -46 4 -25 -5z"/>
<path d="M445 482 c15 -16 121 -40 200 -46 l70 -5 -75 13 c-66 11 -96 18 -185
43 -14 3 -17 2 -10 -5z"/>
<path d="M1880 465 c-14 -8 -20 -14 -15 -14 6 0 21 6 35 14 14 8 21 14 15 14
-5 0 -21 -6 -35 -14z"/>
<path d="M1670 429 c-38 -26 -45 -36 -46 -65 -1 -66 -64 -100 -167 -91 -33 3
-55 2 -48 -3 54 -33 -109 -6 -243 40 -33 11 -61 18 -63 16 -3 -2 13 -9 34 -16
21 -7 47 -18 58 -24 11 -7 62 -23 113 -36 78 -20 97 -22 125 -12 19 7 51 12
73 12 52 0 83 17 115 65 15 21 42 47 60 57 31 16 31 18 11 25 -21 8 -21 9 8
28 28 19 39 36 23 35 -5 -1 -28 -15 -53 -31z"/>
<path d="M1540 439 c0 -5 5 -7 10 -4 6 3 10 8 10 11 0 2 -4 4 -10 4 -5 0 -10
-5 -10 -11z"/>
<path d="M1787 424 c-27 -14 -47 -28 -44 -30 5 -5 107 45 107 52 0 8 -16 2
-63 -22z"/>
<path d="M745 420 c17 -4 41 -8 55 -8 22 0 22 1 -5 8 -16 4 -41 8 -55 8 -22 0
-22 -1 5 -8z"/>
<path d="M845 401 c11 -4 36 -11 55 -15 24 -4 29 -3 15 3 -11 4 -36 11 -55 15
-24 4 -29 3 -15 -3z"/>
<path d="M1105 380 c27 -12 43 -12 25 0 -8 5 -22 9 -30 9 -10 0 -8 -3 5 -9z"/>
<path d="M948 373 c7 -3 16 -2 19 1 4 3 -2 6 -13 5 -11 0 -14 -3 -6 -6z"/>
<path d="M980 366 c0 -4 95 -36 107 -36 12 1 -47 26 -79 34 -16 3 -28 5 -28 2z"/>
<path d="M1190 350 c8 -5 20 -10 25 -10 6 0 3 5 -5 10 -8 5 -19 10 -25 10 -5
0 -3 -5 5 -10z"/>
<path d="M1266 321 c12 -11 84 -34 89 -29 3 2 -18 12 -47 21 -28 9 -47 12 -42
8z"/>
</g>
</svg>
