<?xml version="1.0" encoding="UTF-8"?>
<!DOCTYPE svg PUBLIC "-//W3C//DTD SVG 1.1//EN" "http://www.w3.org/Graphics/SVG/1.1/DTD/svg11.dtd">
<svg xmlns="http://www.w3.org/2000/svg" version="1.1" width="225px" height="225px" style="shape-rendering:geometricPrecision; text-rendering:geometricPrecision; image-rendering:optimizeQuality; fill-rule:evenodd; clip-rule:evenodd" xmlns:xlink="http://www.w3.org/1999/xlink">
<g><path style="opacity:1" fill="#fefefe" d="M -0.5,-0.5 C 74.5,-0.5 149.5,-0.5 224.5,-0.5C 224.5,74.5 224.5,149.5 224.5,224.5C 149.5,224.5 74.5,224.5 -0.5,224.5C -0.5,149.5 -0.5,74.5 -0.5,-0.5 Z"/></g>
<g><path style="opacity:1" fill="#e8e8ec" d="M 119.5,24.5 C 122.125,23.5595 122.125,22.3928 119.5,21C 112.849,20.9434 106.182,21.1101 99.5,21.5C 94.5693,21.3544 89.736,20.6877 85,19.5C 82.849,19.6431 81.1824,20.6431 80,22.5C 79.6964,24.4405 78.8631,26.1072 77.5,27.5C 78.6888,28.4287 80.0222,28.762 81.5,28.5C 79.3057,29.7665 76.9724,29.7665 74.5,28.5C 72.8662,28.968 71.6995,29.968 71,31.5C 70.586,31.0426 70.086,30.7093 69.5,30.5C 66.7855,33.1916 63.4521,34.6916 59.5,35C 53.8333,35.6667 48.1667,35.6667 42.5,35C 41.6721,34.0853 40.6721,33.4186 39.5,33C 48.335,30.7699 57.335,29.4366 66.5,29C 68.3379,23.7697 70.8379,18.9364 74,14.5C 75.8333,13.3333 77.6667,12.1667 79.5,11C 96.1523,11.3901 112.819,11.3901 129.5,11C 131.624,12.1217 133.457,13.6217 135,15.5C 136.532,21.06 137.366,26.7267 137.5,32.5C 131.839,32.0932 126.172,31.7599 120.5,31.5C 120.357,29.7376 120.691,28.0709 121.5,26.5C 120.757,25.8182 120.091,25.1515 119.5,24.5 Z"/></g>
<g><path style="opacity:1" fill="#a7a6ad" d="M 119.5,24.5 C 109.833,25.7083 100.167,25.7083 90.5,24.5C 88.8333,24.8333 87.1667,25.1667 85.5,25.5C 84.9234,27.5499 83.5901,28.5499 81.5,28.5C 80.0222,28.762 78.6888,28.4287 77.5,27.5C 78.8631,26.1072 79.6964,24.4405 80,22.5C 81.1824,20.6431 82.849,19.6431 85,19.5C 89.736,20.6877 94.5693,21.3544 99.5,21.5C 106.182,21.1101 112.849,20.9434 119.5,21C 122.125,22.3928 122.125,23.5595 119.5,24.5 Z"/></g>
<g><path style="opacity:1" fill="#c6c6ce" d="M 139.5,56.5 C 123.876,55.5456 108.209,54.8789 92.5,54.5C 81.0256,53.14 69.3589,52.4734 57.5,52.5C 55.1667,52.5 52.8333,52.5 50.5,52.5C 44.5,52.5 38.5,52.5 32.5,52.5C 32.5,55.1667 32.5,57.8333 32.5,60.5C 31.5206,57.3752 31.1872,54.0419 31.5,50.5C 26.6406,50.2949 26.6406,49.2949 31.5,47.5C 66.2895,44.6719 100.956,46.1719 135.5,52C 137.041,53.3712 138.375,54.8712 139.5,56.5 Z"/></g>
<g><path style="opacity:1" fill="#939397" d="M 57.5,52.5 C 69.3589,52.4734 81.0256,53.14 92.5,54.5C 80.6411,54.5266 68.9744,53.86 57.5,52.5 Z"/></g>
<g><path style="opacity:1" fill="#f6f6f7" d="M 31.5,47.5 C 26.6406,49.2949 26.6406,50.2949 31.5,50.5C 31.1872,54.0419 31.5206,57.3752 32.5,60.5C 33.1603,87.1616 33.4936,113.828 33.5,140.5C 33.3354,143.518 33.502,146.518 34,149.5C 35.7255,150.464 37.5588,151.131 39.5,151.5C 41.4352,152.15 43.4352,152.483 45.5,152.5C 49.3726,153.925 53.3726,154.925 57.5,155.5C 58.5,155.5 59.5,155.5 60.5,155.5C 67.0778,157.153 73.7444,158.82 80.5,160.5C 81.5,160.5 82.5,160.5 83.5,160.5C 101.248,165.119 119.248,169.119 137.5,172.5C 137.5,169.167 137.5,165.833 137.5,162.5C 138.404,161.791 138.737,160.791 138.5,159.5C 139.118,152.183 139.451,144.849 139.5,137.5C 141.199,137.66 142.866,137.494 144.5,137C 143.711,133.903 142.544,133.736 141,136.5C 140.501,130.509 140.334,124.509 140.5,118.5C 141.461,120.265 141.795,122.265 141.5,124.5C 143.167,124.5 144.833,124.5 146.5,124.5C 146.838,127.325 145.838,129.492 143.5,131C 145.35,133.033 146.016,133.033 145.5,131C 150.186,128.471 154.019,129.304 157,133.5C 157.72,131.888 157.554,130.388 156.5,129C 158.807,128.729 159.974,129.895 160,132.5C 160.333,131.833 160.667,131.167 161,130.5C 162.106,120.693 162.94,110.86 163.5,101C 163.292,98.5086 162.625,96.1753 161.5,94C 162.419,89.2188 162.752,84.3855 162.5,79.5C 163.5,79.5 164.5,79.5 165.5,79.5C 165.054,76.9899 165.72,74.9899 167.5,73.5C 167.843,76.8204 168.176,80.1537 168.5,83.5C 165.989,108.458 163.655,133.458 161.5,158.5C 158.807,156.868 157.807,154.701 158.5,152C 155.327,150.191 151.993,149.191 148.5,149C 146.717,150.067 146.217,151.567 147,153.5C 148.558,155.359 150.391,156.859 152.5,158C 146.825,158.464 146.492,159.131 151.5,160C 148.28,161.266 145.947,163.433 144.5,166.5C 144.833,166.833 145.167,167.167 145.5,167.5C 148.36,165.14 151.36,162.973 154.5,161C 153.833,160.667 153.167,160.333 152.5,160C 153.667,158.833 154.833,157.667 156,156.5C 156.5,158.333 157.667,159.5 159.5,160C 162.168,160.567 164.834,161.067 167.5,161.5C 167.5,162.5 167.5,163.5 167.5,164.5C 165.712,164.215 164.045,164.548 162.5,165.5C 165.044,168.76 165.878,172.426 165,176.5C 163.615,175.449 162.615,174.116 162,172.5C 162.126,177.684 160.959,178.35 158.5,174.5C 155.427,175.958 153.094,175.124 151.5,172C 153.847,170.419 153.847,169.086 151.5,168C 154.563,166.335 157.396,166.835 160,169.5C 160.617,168.551 160.451,167.718 159.5,167C 156.134,165.121 152.8,165.121 149.5,167C 147.972,171.369 147.472,175.869 148,180.5C 150.363,182.94 152.863,185.273 155.5,187.5C 154.315,188.853 152.981,190.02 151.5,191C 146.178,191.435 141.178,191.935 136.5,192.5C 136.167,192.5 135.833,192.5 135.5,192.5C 133.927,189.107 131.26,187.774 127.5,188.5C 127.5,187.5 127.5,186.5 127.5,185.5C 122.347,183.37 117.014,181.703 111.5,180.5C 111.714,178.856 111.38,177.356 110.5,176C 102.886,174.423 95.2196,173.089 87.5,172C 86.9558,171.283 86.2891,170.783 85.5,170.5C 81.3291,169.738 77.3291,168.738 73.5,167.5C 58.6347,164.097 43.6347,161.263 28.5,159C 27.3147,157.647 25.9814,156.48 24.5,155.5C 24.1336,150.973 23.1336,146.64 21.5,142.5C 22.1667,140.5 22.8333,138.5 23.5,136.5C 21.5783,133.83 20.4116,130.83 20,127.5C 18.6688,119.536 18.3355,111.536 19,103.5C 19.414,103.043 19.914,102.709 20.5,102.5C 21.1667,103.5 21.8333,104.5 22.5,105.5C 23.8088,92.8185 24.1421,80.1518 23.5,67.5C 22.5,67.5 21.5,67.5 20.5,67.5C 20.8242,71.5546 20.4909,75.5546 19.5,79.5C 18.4194,71.2144 17.7528,63.2144 17.5,55.5C 17.0366,51.1716 17.8699,47.1716 20,43.5C 21.1193,49.5998 21.786,55.5998 22,61.5C 22.4992,56.8452 22.6658,52.1785 22.5,47.5C 25.5,47.5 28.5,47.5 31.5,47.5 Z"/></g>
<g><path style="opacity:1" fill="#181b1d" d="M 50.5,52.5 C 52.8333,52.5 55.1667,52.5 57.5,52.5C 68.9744,53.86 80.6411,54.5266 92.5,54.5C 108.209,54.8789 123.876,55.5456 139.5,56.5C 139.5,56.8333 139.5,57.1667 139.5,57.5C 138.733,58.172 138.066,59.0053 137.5,60C 138.517,61.0495 138.684,62.2161 138,63.5C 137.667,62.8333 137.333,62.1667 137,61.5C 136.326,62.5784 135.326,63.2451 134,63.5C 131.451,62.4812 128.951,62.4812 126.5,63.5C 127.341,66.2515 126.341,68.4182 123.5,70C 125.119,70.2355 126.119,71.0689 126.5,72.5C 125.167,72.5 123.833,72.5 122.5,72.5C 122.429,75.0241 123.429,77.0241 125.5,78.5C 124.364,78.9643 123.364,79.2976 122.5,79.5C 117.364,86.1254 112.364,86.1254 107.5,79.5C 107.813,76.7531 107.48,74.0865 106.5,71.5C 105.5,71.8333 104.833,72.5 104.5,73.5C 105.348,75.4086 105.682,77.4086 105.5,79.5C 104.167,79.5 102.833,79.5 101.5,79.5C 101.296,76.4824 100.963,73.4824 100.5,70.5C 103.909,70.7507 107.242,70.4173 110.5,69.5C 112.808,69.9655 114.142,71.2988 114.5,73.5C 113.463,75.7375 113.297,78.0709 114,80.5C 115.604,77.753 116.438,74.753 116.5,71.5C 116.833,71.5 117.167,71.5 117.5,71.5C 118.5,72.8333 119.5,74.1667 120.5,75.5C 121.097,75.2648 121.43,74.7648 121.5,74C 120.944,72.9889 120.278,72.1556 119.5,71.5C 120.528,70.9264 121.528,70.593 122.5,70.5C 121.388,69.7348 120.721,68.7348 120.5,67.5C 121.833,67.5 123.167,67.5 124.5,67.5C 124.5,66.5 124.5,65.5 124.5,64.5C 123.167,64.5 121.833,64.5 120.5,64.5C 117.851,62.8906 114.851,62.0572 111.5,62C 102.814,61.6738 94.147,61.1738 85.5,60.5C 85.5,61.5 85.5,62.5 85.5,63.5C 83.5,63.5 81.5,63.5 79.5,63.5C 79.5,62.5 79.5,61.5 79.5,60.5C 64.5024,59.4261 49.5024,58.4261 34.5,57.5C 34.456,60.4808 34.1227,60.8142 33.5,58.5C 34.2485,56.9644 35.2485,55.6311 36.5,54.5C 41.3167,53.8331 45.9834,53.1665 50.5,52.5 Z"/></g>
<g><path style="opacity:1" fill="#080607" d="M 50.5,52.5 C 45.9834,53.1665 41.3167,53.8331 36.5,54.5C 35.2485,55.6311 34.2485,56.9644 33.5,58.5C 34.1227,60.8142 34.456,60.4808 34.5,57.5C 49.5024,58.4261 64.5024,59.4261 79.5,60.5C 79.5,61.5 79.5,62.5 79.5,63.5C 81.5,63.5 83.5,63.5 85.5,63.5C 85.5,62.5 85.5,61.5 85.5,60.5C 94.147,61.1738 102.814,61.6738 111.5,62C 114.851,62.0572 117.851,62.8906 120.5,64.5C 119.167,65.5 119.167,66.5 120.5,67.5C 120.721,68.7348 121.388,69.7348 122.5,70.5C 121.528,70.593 120.528,70.9264 119.5,71.5C 118.833,71.5 118.167,71.5 117.5,71.5C 117.167,71.5 116.833,71.5 116.5,71.5C 115.833,72.1667 115.167,72.8333 114.5,73.5C 114.142,71.2988 112.808,69.9655 110.5,69.5C 107.242,70.4173 103.909,70.7507 100.5,70.5C 100.963,73.4824 101.296,76.4824 101.5,79.5C 102.833,79.5 104.167,79.5 105.5,79.5C 106.167,79.5 106.833,79.5 107.5,79.5C 112.364,86.1254 117.364,86.1254 122.5,79.5C 123.85,82.106 125.35,82.106 127,79.5C 126.793,77.2487 126.627,74.9154 126.5,72.5C 126.119,71.0689 125.119,70.2355 123.5,70C 126.341,68.4182 127.341,66.2515 126.5,63.5C 128.951,62.4812 131.451,62.4812 134,63.5C 135.326,63.2451 136.326,62.5784 137,61.5C 137.333,62.1667 137.667,62.8333 138,63.5C 138.684,62.2161 138.517,61.0495 137.5,60C 138.066,59.0053 138.733,58.172 139.5,57.5C 140.441,62.0704 140.774,66.737 140.5,71.5C 140.5,77.8333 140.5,84.1667 140.5,90.5C 139.504,105.991 139.17,121.658 139.5,137.5C 139.451,144.849 139.118,152.183 138.5,159.5C 136.167,159.5 133.833,159.5 131.5,159.5C 131.5,154.167 131.5,148.833 131.5,143.5C 129.833,143.5 128.167,143.5 126.5,143.5C 125.5,143.5 124.5,143.5 123.5,143.5C 123.5,146.167 123.5,148.833 123.5,151.5C 122.835,153.369 122.169,155.369 121.5,157.5C 120.749,156.624 120.249,155.624 120,154.5C 118.644,155.38 117.144,155.714 115.5,155.5C 115.5,150.833 115.5,146.167 115.5,141.5C 113.167,141.5 110.833,141.5 108.5,141.5C 107.677,144.977 107.177,148.644 107,152.5C 105.301,153.406 103.467,153.739 101.5,153.5C 101.819,148.637 101.486,143.97 100.5,139.5C 98.139,139.326 95.8056,138.993 93.5,138.5C 93.5,142.5 93.5,146.5 93.5,150.5C 92.1779,150.67 91.0113,150.337 90,149.5C 89.5008,144.845 89.3342,140.179 89.5,135.5C 86.6146,135.194 83.9479,135.527 81.5,136.5C 81.5,141.167 81.5,145.833 81.5,150.5C 82.1667,151.833 83.1667,152.833 84.5,153.5C 84.5,154.833 84.5,156.167 84.5,157.5C 85.8333,157.5 87.1667,157.5 88.5,157.5C 88.6347,155.446 87.968,153.779 86.5,152.5C 87.8333,152.5 89.1667,152.5 90.5,152.5C 90.552,154.903 90.2186,157.236 89.5,159.5C 87.9397,159.481 86.4397,159.148 85,158.5C 83.9701,158.836 83.4701,159.503 83.5,160.5C 82.5,160.5 81.5,160.5 80.5,160.5C 80.67,159.178 80.3366,158.011 79.5,157C 80.428,156.612 81.0946,155.945 81.5,155C 80.1153,153.403 79.4486,151.57 79.5,149.5C 75.5898,149.737 71.9231,148.904 68.5,147C 69.841,143.738 69.5076,143.238 67.5,145.5C 66.5224,145.023 65.6891,144.357 65,143.5C 64.3828,144.449 64.5494,145.282 65.5,146C 61.8673,147.25 60.8673,149.583 62.5,153C 61.244,153.417 60.5774,154.25 60.5,155.5C 59.5,155.5 58.5,155.5 57.5,155.5C 57.6399,153.876 56.9733,152.71 55.5,152C 58.1667,150.667 58.1667,149.333 55.5,148C 56.1667,147.667 56.8333,147.333 57.5,147C 56.4366,145.812 55.1033,145.312 53.5,145.5C 51.8984,143.926 49.8984,143.259 47.5,143.5C 47.1667,143.5 46.8333,143.5 46.5,143.5C 44.7354,142.539 42.7354,142.205 40.5,142.5C 38.4306,140.267 36.0972,139.6 33.5,140.5C 33.4936,113.828 33.1603,87.1616 32.5,60.5C 32.5,57.8333 32.5,55.1667 32.5,52.5C 38.5,52.5 44.5,52.5 50.5,52.5 Z"/></g>
<g><path style="opacity:1" fill="#62645f" d="M 112.5,57.5 C 117.167,57.5 121.833,57.5 126.5,57.5C 126.5,58.5 126.5,59.5 126.5,60.5C 121.833,60.5 117.167,60.5 112.5,60.5C 112.5,59.5 112.5,58.5 112.5,57.5 Z"/></g>
<g><path style="opacity:1" fill="#1a7189" d="M 120.5,64.5 C 121.833,64.5 123.167,64.5 124.5,64.5C 124.5,65.5 124.5,66.5 124.5,67.5C 123.167,67.5 121.833,67.5 120.5,67.5C 119.167,66.5 119.167,65.5 120.5,64.5 Z"/></g>
<g><path style="opacity:1" fill="#094b6c" d="M 103.5,63.5 C 105.5,63.5 107.5,63.5 109.5,63.5C 109.5,64.8333 109.5,66.1667 109.5,67.5C 107.5,67.5 105.5,67.5 103.5,67.5C 103.5,66.1667 103.5,64.8333 103.5,63.5 Z"/></g>
<g><path style="opacity:1" fill="#83b141" d="M 63.5,79.5 C 63.5,80.5 63.5,81.5 63.5,82.5C 62.1779,82.67 61.0113,82.3366 60,81.5C 58.2338,76.9 58.0672,72.2333 59.5,67.5C 61.0064,66.2528 62.5064,66.2528 64,67.5C 66.1003,71.8463 65.9336,75.8463 63.5,79.5 Z"/></g>
<g><path style="opacity:1" fill="#142412" d="M 63.5,79.5 C 62.5,79.5 61.5,79.5 60.5,79.5C 60.1796,76.1016 60.513,72.7683 61.5,69.5C 62.086,69.7093 62.586,70.0426 63,70.5C 63.498,73.4816 63.6646,76.4816 63.5,79.5 Z"/></g>
<g><path style="opacity:1" fill="#179fd2" d="M 117.5,71.5 C 118.167,71.5 118.833,71.5 119.5,71.5C 120.278,72.1556 120.944,72.9889 121.5,74C 121.43,74.7648 121.097,75.2648 120.5,75.5C 119.5,74.1667 118.5,72.8333 117.5,71.5 Z"/></g>
<g><path style="opacity:1" fill="#0e8bc2" d="M 107.5,79.5 C 106.833,79.5 106.167,79.5 105.5,79.5C 105.682,77.4086 105.348,75.4086 104.5,73.5C 104.833,72.5 105.5,71.8333 106.5,71.5C 107.48,74.0865 107.813,76.7531 107.5,79.5 Z"/></g>
<g><path style="opacity:1" fill="#207cb1" d="M 126.5,72.5 C 126.627,74.9154 126.793,77.2487 127,79.5C 125.35,82.106 123.85,82.106 122.5,79.5C 123.364,79.2976 124.364,78.9643 125.5,78.5C 123.429,77.0241 122.429,75.0241 122.5,72.5C 123.833,72.5 125.167,72.5 126.5,72.5 Z"/></g>
<g><path style="opacity:1" fill="#05b3f7" d="M 110.5,71.5 C 111.634,73.9664 111.801,76.633 111,79.5C 110.058,76.7288 109.892,74.0621 110.5,71.5 Z"/></g>
<g><path style="opacity:1" fill="#126b9f" d="M 116.5,71.5 C 116.438,74.753 115.604,77.753 114,80.5C 113.297,78.0709 113.463,75.7375 114.5,73.5C 115.167,72.8333 115.833,72.1667 116.5,71.5 Z"/></g>
<g><path style="opacity:1" fill="#87b13e" d="M 52.5,66.5 C 56.4193,65.7464 57.7527,67.0797 56.5,70.5C 54.6329,67.7709 53.6329,68.1043 53.5,71.5C 54.8221,71.33 55.9887,71.6634 57,72.5C 57.6667,75.1667 57.6667,77.8333 57,80.5C 55.5064,81.7472 54.0064,81.7472 52.5,80.5C 51.1716,75.8032 51.1716,71.1365 52.5,66.5 Z"/></g>
<g><path style="opacity:1" fill="#040f18" d="M 53.5,74.5 C 54.5862,74.62 55.2528,75.2867 55.5,76.5C 55.1667,77.1667 54.8333,77.8333 54.5,78.5C 53.5713,77.3112 53.238,75.9778 53.5,74.5 Z"/></g>
<g><path style="opacity:1" fill="#1a89b0" d="M 120.5,75.5 C 120.785,77.288 120.452,78.9547 119.5,80.5C 118.366,78.5615 118.7,76.8948 120.5,75.5 Z"/></g>
<g><path style="opacity:1" fill="#1068a2" d="M 112.5,89.5 C 112.5,88.8333 112.5,88.1667 112.5,87.5C 113.209,86.596 114.209,86.2627 115.5,86.5C 115.5,87.5 115.5,88.5 115.5,89.5C 114.5,89.5 113.5,89.5 112.5,89.5 Z"/></g>
<g><path style="opacity:1" fill="#1e7065" d="M 112.5,87.5 C 112.5,88.1667 112.5,88.8333 112.5,89.5C 111.5,89.5 110.5,89.5 109.5,89.5C 109.402,86.7524 110.402,86.0857 112.5,87.5 Z"/></g>
<g><path style="opacity:1" fill="#1c2410" d="M 48.5,88.5 C 49.5,88.5 50.5,88.5 51.5,88.5C 51.5,89.5 51.5,90.5 51.5,91.5C 49.0576,91.3537 48.3909,92.187 49.5,94C 53.8321,94.5833 58.1654,95.0833 62.5,95.5C 62.5,94.5 62.5,93.5 62.5,92.5C 60.5165,92.6168 58.8498,91.9501 57.5,90.5C 62.0873,88.8106 64.0873,90.4772 63.5,95.5C 68.3954,96.5137 73.2287,96.5137 78,95.5C 80.4276,97.8602 79.9276,98.8602 76.5,98.5C 67.0198,97.2768 57.3532,96.2768 47.5,95.5C 47.298,93.0504 47.6314,90.717 48.5,88.5 Z"/></g>
<g><path style="opacity:1" fill="#e5e4e7" d="M 140.5,71.5 C 141.329,78.0094 141.995,84.676 142.5,91.5C 145.642,91.7993 147.809,93.4659 149,96.5C 154.333,94.1667 156.333,95.8333 155,101.5C 152.842,104.296 150.009,105.629 146.5,105.5C 146.318,110.794 145.818,110.794 145,105.5C 144.51,106.793 144.343,108.127 144.5,109.5C 143.5,109.5 142.5,109.5 141.5,109.5C 141.594,112.985 142.761,115.985 145,118.5C 145.893,117.289 146.726,117.289 147.5,118.5C 146.667,118.833 145.833,119.167 145,119.5C 143.393,118.926 141.893,118.26 140.5,117.5C 140.5,108.5 140.5,99.5 140.5,90.5C 140.5,84.1667 140.5,77.8333 140.5,71.5 Z"/></g>
<g><path style="opacity:1" fill="#196a92" d="M 108.5,95.5 C 111.167,95.5 113.833,95.5 116.5,95.5C 116.664,98.1873 116.497,100.854 116,103.5C 115.667,101.833 115.333,100.167 115,98.5C 114.517,99.448 114.351,100.448 114.5,101.5C 109.832,102.161 107.832,100.161 108.5,95.5 Z"/></g>
<g><path style="opacity:1" fill="#57c7b0" d="M 48.5,112.5 C 48.5,114.833 48.5,117.167 48.5,119.5C 48.3969,122.564 47.0636,123.564 44.5,122.5C 43.1667,120.833 43.1667,119.167 44.5,117.5C 41.5994,114.031 41.9328,111.031 45.5,108.5C 47.9153,108.719 48.9153,110.052 48.5,112.5 Z"/></g>
<g><path style="opacity:1" fill="#182e2a" d="M 45.5,110.5 C 47.561,111.751 47.8943,113.418 46.5,115.5C 44.2957,114.218 43.9624,112.551 45.5,110.5 Z"/></g>
<g><path style="opacity:1" fill="#4f7977" d="M 49.5,119.5 C 49.1667,119.5 48.8333,119.5 48.5,119.5C 48.5,117.167 48.5,114.833 48.5,112.5C 48.8333,112.5 49.1667,112.5 49.5,112.5C 49.4346,112.938 49.6012,113.272 50,113.5C 51.4705,111.128 52.6372,111.128 53.5,113.5C 51.7559,115.241 50.4226,117.241 49.5,119.5 Z"/></g>
<g><path style="opacity:1" fill="#53d5b5" d="M 49.5,119.5 C 50.4226,117.241 51.7559,115.241 53.5,113.5C 52.6372,111.128 51.4705,111.128 50,113.5C 49.6012,113.272 49.4346,112.938 49.5,112.5C 50.3525,110.074 52.0192,109.24 54.5,110C 55.8333,114.667 55.8333,119.333 54.5,124C 51.1621,124.5 49.4954,123 49.5,119.5 Z"/></g>
<g><path style="opacity:1" fill="#524f53" d="M 140.5,90.5 C 140.5,99.5 140.5,108.5 140.5,117.5C 140.5,117.833 140.5,118.167 140.5,118.5C 140.334,124.509 140.501,130.509 141,136.5C 142.544,133.736 143.711,133.903 144.5,137C 142.866,137.494 141.199,137.66 139.5,137.5C 139.17,121.658 139.504,105.991 140.5,90.5 Z"/></g>
<g><path style="opacity:1" fill="#cbcbd0" d="M 204.5,100.5 C 207.391,101.403 210.391,101.736 213.5,101.5C 213.232,121.837 212.732,142.171 212,162.5C 211.861,165.445 210.694,167.779 208.5,169.5C 208.631,168.761 208.464,168.094 208,167.5C 196.81,173.568 185.31,179.068 173.5,184C 170.833,184.667 168.167,184.667 165.5,184C 168.692,182.906 171.358,181.073 173.5,178.5C 173.167,178.167 172.833,177.833 172.5,177.5C 170.513,179.327 168.179,180.327 165.5,180.5C 165.888,175.979 167.555,171.979 170.5,168.5C 171.325,167.614 172.325,167.281 173.5,167.5C 173.165,148.873 173.665,130.206 175,111.5C 183.666,108.792 192.499,106.625 201.5,105C 202.897,103.69 203.897,102.19 204.5,100.5 Z"/></g>
<g><path style="opacity:1" fill="#97979e" d="M 202.5,108.5 C 204.199,108.34 205.866,108.506 207.5,109C 197.466,112.711 187.132,115.045 176.5,116C 185.261,113.603 193.928,111.103 202.5,108.5 Z"/></g>
<g><path style="opacity:1" fill="#172226" d="M 51.5,117.5 C 53.9118,117.694 54.9118,119.027 54.5,121.5C 53.5,121.5 52.5,121.5 51.5,121.5C 51.5,120.167 51.5,118.833 51.5,117.5 Z"/></g>
<g><path style="opacity:1" fill="#8b0c4b" d="M 104.5,118.5 C 103.79,120.746 103.29,123.08 103,125.5C 101.956,124.377 101.29,123.044 101,121.5C 99.228,122.99 99.0613,124.657 100.5,126.5C 99.3061,127.67 98.6395,127.337 98.5,125.5C 98.1667,122.833 97.8333,120.167 97.5,117.5C 99.861,117.674 102.194,118.007 104.5,118.5 Z"/></g>
<g><path style="opacity:1" fill="#4fad95" d="M 70.5,123.5 C 71.7251,124.152 72.3917,125.319 72.5,127C 72.549,131.26 71.549,131.426 69.5,127.5C 69.8457,126.151 70.179,124.817 70.5,123.5 Z"/></g>
<g><path style="opacity:1" fill="#5dc4aa" d="M 76.5,124.5 C 77.6291,126.628 77.7958,128.961 77,131.5C 75.9525,129.079 75.7858,126.746 76.5,124.5 Z"/></g>
<g><path style="opacity:1" fill="#cb1a70" d="M 104.5,118.5 C 105.822,118.33 106.989,118.663 108,119.5C 107.128,123.032 107.461,126.365 109,129.5C 106.426,132.259 104.26,131.926 102.5,128.5C 101.468,130.04 100.135,130.54 98.5,130C 97.6872,128.686 96.6872,127.519 95.5,126.5C 96.325,125.614 97.325,125.281 98.5,125.5C 98.6395,127.337 99.3061,127.67 100.5,126.5C 99.0613,124.657 99.228,122.99 101,121.5C 101.29,123.044 101.956,124.377 103,125.5C 103.29,123.08 103.79,120.746 104.5,118.5 Z"/></g>
<g><path style="opacity:1" fill="#a31352" d="M 123.5,131.5 C 125.633,133.259 127.966,133.926 130.5,133.5C 131.952,136.282 131.619,138.782 129.5,141C 127.951,140.478 126.451,140.645 125,141.5C 123.739,141.241 122.739,140.574 122,139.5C 123.179,137.064 123.679,134.398 123.5,131.5 Z"/></g>
<g><path style="opacity:1" fill="#e7e7ea" d="M 204.5,100.5 C 203.897,102.19 202.897,103.69 201.5,105C 192.499,106.625 183.666,108.792 175,111.5C 173.665,130.206 173.165,148.873 173.5,167.5C 172.325,167.281 171.325,167.614 170.5,168.5C 167.555,171.979 165.888,175.979 165.5,180.5C 163.691,183.139 161.358,185.306 158.5,187C 159.448,187.483 160.448,187.649 161.5,187.5C 161.854,190.961 160.521,193.461 157.5,195C 151.202,196.784 144.868,196.95 138.5,195.5C 137.449,194.778 136.782,193.778 136.5,192.5C 141.178,191.935 146.178,191.435 151.5,191C 152.981,190.02 154.315,188.853 155.5,187.5C 152.863,185.273 150.363,182.94 148,180.5C 147.472,175.869 147.972,171.369 149.5,167C 152.8,165.121 156.134,165.121 159.5,167C 160.451,167.718 160.617,168.551 160,169.5C 157.396,166.835 154.563,166.335 151.5,168C 153.847,169.086 153.847,170.419 151.5,172C 153.094,175.124 155.427,175.958 158.5,174.5C 160.959,178.35 162.126,177.684 162,172.5C 162.615,174.116 163.615,175.449 165,176.5C 165.878,172.426 165.044,168.76 162.5,165.5C 164.045,164.548 165.712,164.215 167.5,164.5C 167.5,163.5 167.5,162.5 167.5,161.5C 164.834,161.067 162.168,160.567 159.5,160C 157.667,159.5 156.5,158.333 156,156.5C 154.833,157.667 153.667,158.833 152.5,160C 153.167,160.333 153.833,160.667 154.5,161C 151.36,162.973 148.36,165.14 145.5,167.5C 145.167,167.167 144.833,166.833 144.5,166.5C 145.947,163.433 148.28,161.266 151.5,160C 146.492,159.131 146.825,158.464 152.5,158C 150.391,156.859 148.558,155.359 147,153.5C 146.217,151.567 146.717,150.067 148.5,149C 151.993,149.191 155.327,150.191 158.5,152C 157.807,154.701 158.807,156.868 161.5,158.5C 163.655,133.458 165.989,108.458 168.5,83.5C 168.176,80.1537 167.843,76.8204 167.5,73.5C 166.808,65.8583 166.308,58.1916 166,50.5C 164.641,47.19 163.474,44.19 162.5,41.5C 163.333,41.1667 164.167,40.8333 165,40.5C 173.584,41.1882 181.751,43.1882 189.5,46.5C 190.931,50.9308 193.931,53.5975 198.5,54.5C 197.923,56.1056 197.59,57.7722 197.5,59.5C 198.262,62.5725 198.929,65.4059 199.5,68C 196.25,76.6508 197.417,84.8174 203,92.5C 203.272,95.2538 203.772,97.9205 204.5,100.5 Z"/></g>
<g><path style="opacity:1" fill="#657374" d="M 193.5,63.5 C 194.167,63.5 194.833,63.5 195.5,63.5C 195.5,66.1667 195.5,68.8333 195.5,71.5C 194.549,72.9187 194.216,74.5853 194.5,76.5C 192.019,76.6766 190.186,75.6766 189,73.5C 185.875,77.6973 183.708,77.1973 182.5,72C 182.905,71.0546 183.572,70.3879 184.5,70C 186.81,69.5034 189.143,69.3367 191.5,69.5C 191.5,68.5 191.5,67.5 191.5,66.5C 192.401,65.7095 193.068,64.7095 193.5,63.5 Z"/></g>
<g><path style="opacity:1" fill="#2fd4af" d="M 193.5,63.5 C 193.068,64.7095 192.401,65.7095 191.5,66.5C 189.952,66.1788 189.285,65.1788 189.5,63.5C 190.833,63.5 192.167,63.5 193.5,63.5 Z"/></g>
<g><path style="opacity:1" fill="#b7b4b4" d="M 195.5,63.5 C 194.833,63.5 194.167,63.5 193.5,63.5C 192.167,63.5 190.833,63.5 189.5,63.5C 189.285,65.1788 189.952,66.1788 191.5,66.5C 191.5,67.5 191.5,68.5 191.5,69.5C 189.143,69.3367 186.81,69.5034 184.5,70C 183.572,70.3879 182.905,71.0546 182.5,72C 183.708,77.1973 185.875,77.6973 189,73.5C 190.186,75.6766 192.019,76.6766 194.5,76.5C 194.216,74.5853 194.549,72.9187 195.5,71.5C 195.499,79.5173 195.166,87.5173 194.5,95.5C 186.328,97.8063 177.995,99.1397 169.5,99.5C 169.689,85.829 170.022,72.1623 170.5,58.5C 178.858,58.6214 187.191,58.2881 195.5,57.5C 195.5,59.5 195.5,61.5 195.5,63.5 Z"/></g>
<g><path style="opacity:1" fill="#121213" d="M 174.5,83.5 C 177.465,83.73 178.798,85.3966 178.5,88.5C 178.486,91.9037 177.153,94.5704 174.5,96.5C 173.914,96.2907 173.414,95.9574 173,95.5C 171.994,91.1985 172.494,87.1985 174.5,83.5 Z"/></g>
<g><path style="opacity:1" fill="#403b2d" d="M 173.5,66.5 C 174.376,66.3691 175.043,66.7025 175.5,67.5C 173.172,72.5571 172.506,72.2238 173.5,66.5 Z"/></g>
<g><path style="opacity:1" fill="#1e110f" d="M 179.5,66.5 C 180.844,68.1849 180.677,69.8516 179,71.5C 178.36,69.735 178.527,68.0683 179.5,66.5 Z"/></g>
<g><path style="opacity:1" fill="#39558b" d="M 40.5,142.5 C 39.5975,145.391 39.2641,148.391 39.5,151.5C 37.5588,151.131 35.7255,150.464 34,149.5C 33.502,146.518 33.3354,143.518 33.5,140.5C 36.0972,139.6 38.4306,140.267 40.5,142.5 Z"/></g>
<g><path style="opacity:1" fill="#e20d81" d="M 81.5,136.5 C 83.861,136.674 86.1944,137.007 88.5,137.5C 88.5,142.167 88.5,146.833 88.5,151.5C 86.1944,151.007 83.861,150.674 81.5,150.5C 81.5,145.833 81.5,141.167 81.5,136.5 Z"/></g>
<g><path style="opacity:1" fill="#750a37" d="M 100.5,139.5 C 101.486,143.97 101.819,148.637 101.5,153.5C 103.467,153.739 105.301,153.406 107,152.5C 107.177,148.644 107.677,144.977 108.5,141.5C 108.5,146.167 108.5,150.833 108.5,155.5C 109.791,155.263 110.791,155.596 111.5,156.5C 107.159,156.342 103.159,155.342 99.5,153.5C 100.486,149.03 100.819,144.363 100.5,139.5 Z"/></g>
<g><path style="opacity:1" fill="#293031" d="M 40.5,142.5 C 42.7354,142.205 44.7354,142.539 46.5,143.5C 46.5,145.5 46.5,147.5 46.5,149.5C 47.5,149.5 48.5,149.5 49.5,149.5C 49.7413,147.114 49.0746,145.114 47.5,143.5C 49.8984,143.259 51.8984,143.926 53.5,145.5C 53.6621,147.527 53.4955,149.527 53,151.5C 52.5814,150.328 51.9147,149.328 51,148.5C 48.9844,149.747 47.1511,151.081 45.5,152.5C 43.4352,152.483 41.4352,152.15 39.5,151.5C 39.2641,148.391 39.5975,145.391 40.5,142.5 Z"/></g>
<g><path style="opacity:1" fill="#76747d" d="M 46.5,143.5 C 46.8333,143.5 47.1667,143.5 47.5,143.5C 49.0746,145.114 49.7413,147.114 49.5,149.5C 48.5,149.5 47.5,149.5 46.5,149.5C 46.5,147.5 46.5,145.5 46.5,143.5 Z"/></g>
<g><path style="opacity:1" fill="#f10a8e" d="M 108.5,141.5 C 110.833,141.5 113.167,141.5 115.5,141.5C 115.5,146.167 115.5,150.833 115.5,155.5C 114.432,156.434 113.099,156.768 111.5,156.5C 110.791,155.596 109.791,155.263 108.5,155.5C 108.5,150.833 108.5,146.167 108.5,141.5 Z"/></g>
<g><path style="opacity:1" fill="#eb0e89" d="M 100.5,139.5 C 100.819,144.363 100.486,149.03 99.5,153.5C 97.8333,153.5 96.1667,153.5 94.5,153.5C 93.8902,152.609 93.5569,151.609 93.5,150.5C 93.5,146.5 93.5,142.5 93.5,138.5C 95.8056,138.993 98.139,139.326 100.5,139.5 Z"/></g>
<g><path style="opacity:1" fill="#555555" d="M 53.5,145.5 C 55.1033,145.312 56.4366,145.812 57.5,147C 56.8333,147.333 56.1667,147.667 55.5,148C 58.1667,149.333 58.1667,150.667 55.5,152C 56.9733,152.71 57.6399,153.876 57.5,155.5C 53.3726,154.925 49.3726,153.925 45.5,152.5C 47.1511,151.081 48.9844,149.747 51,148.5C 51.9147,149.328 52.5814,150.328 53,151.5C 53.4955,149.527 53.6621,147.527 53.5,145.5 Z"/></g>
<g><path style="opacity:1" fill="#b1b0b7" d="M 86.5,152.5 C 87.968,153.779 88.6347,155.446 88.5,157.5C 87.1667,157.5 85.8333,157.5 84.5,157.5C 84.5,156.167 84.5,154.833 84.5,153.5C 84.8417,152.662 85.5084,152.328 86.5,152.5 Z"/></g>
<g><path style="opacity:1" fill="#48132b" d="M 81.5,136.5 C 83.9479,135.527 86.6146,135.194 89.5,135.5C 89.3342,140.179 89.5008,144.845 90,149.5C 91.0113,150.337 92.1779,150.67 93.5,150.5C 93.5569,151.609 93.8902,152.609 94.5,153.5C 93.5,153.5 92.5,153.5 91.5,153.5C 91.9746,156.082 91.3079,158.082 89.5,159.5C 90.2186,157.236 90.552,154.903 90.5,152.5C 89.1667,152.5 87.8333,152.5 86.5,152.5C 85.5084,152.328 84.8417,152.662 84.5,153.5C 83.1667,152.833 82.1667,151.833 81.5,150.5C 83.861,150.674 86.1944,151.007 88.5,151.5C 88.5,146.833 88.5,142.167 88.5,137.5C 86.1944,137.007 83.861,136.674 81.5,136.5 Z"/></g>
<g><path style="opacity:1" fill="#2f2d2e" d="M 80.5,160.5 C 73.7444,158.82 67.0778,157.153 60.5,155.5C 60.5774,154.25 61.244,153.417 62.5,153C 60.8673,149.583 61.8673,147.25 65.5,146C 64.5494,145.282 64.3828,144.449 65,143.5C 65.6891,144.357 66.5224,145.023 67.5,145.5C 69.5076,143.238 69.841,143.738 68.5,147C 71.9231,148.904 75.5898,149.737 79.5,149.5C 79.4486,151.57 80.1153,153.403 81.5,155C 81.0946,155.945 80.428,156.612 79.5,157C 80.3366,158.011 80.67,159.178 80.5,160.5 Z"/></g>
<g><path style="opacity:1" fill="#cccccc" d="M 69.5,150.5 C 71.4646,150.948 71.7979,151.948 70.5,153.5C 69.6143,152.675 69.281,151.675 69.5,150.5 Z"/></g>
<g><path style="opacity:1" fill="#f30a92" d="M 126.5,143.5 C 127.568,144.434 128.901,144.768 130.5,144.5C 130.821,149.695 130.487,154.695 129.5,159.5C 128.833,159.5 128.167,159.5 127.5,159.5C 126.432,158.566 125.099,158.232 123.5,158.5C 123.5,156.167 123.5,153.833 123.5,151.5C 123.5,148.833 123.5,146.167 123.5,143.5C 124.5,143.5 125.5,143.5 126.5,143.5 Z"/></g>
<g><path style="opacity:1" fill="#78113e" d="M 123.5,151.5 C 123.5,153.833 123.5,156.167 123.5,158.5C 125.099,158.232 126.432,158.566 127.5,159.5C 121.853,159.409 116.52,158.409 111.5,156.5C 113.099,156.768 114.432,156.434 115.5,155.5C 117.144,155.714 118.644,155.38 120,154.5C 120.249,155.624 120.749,156.624 121.5,157.5C 122.169,155.369 122.835,153.369 123.5,151.5 Z"/></g>
<g><path style="opacity:1" fill="#e4e3e7" d="M 17.5,55.5 C 17.7528,63.2144 18.4194,71.2144 19.5,79.5C 20.4909,75.5546 20.8242,71.5546 20.5,67.5C 21.5,67.5 22.5,67.5 23.5,67.5C 24.1421,80.1518 23.8088,92.8185 22.5,105.5C 21.8333,104.5 21.1667,103.5 20.5,102.5C 19.914,102.709 19.414,103.043 19,103.5C 18.3355,111.536 18.6688,119.536 20,127.5C 20.4116,130.83 21.5783,133.83 23.5,136.5C 22.8333,138.5 22.1667,140.5 21.5,142.5C 23.1336,146.64 24.1336,150.973 24.5,155.5C 25.9814,156.48 27.3147,157.647 28.5,159C 43.6347,161.263 58.6347,164.097 73.5,167.5C 72.5,167.5 71.5,167.5 70.5,167.5C 70.4622,174.041 69.7955,174.041 68.5,167.5C 68.1667,167.667 67.8333,167.833 67.5,168C 68.3366,169.011 68.67,170.178 68.5,171.5C 67.0695,171.421 65.7362,171.754 64.5,172.5C 63.0506,171.383 61.3839,170.716 59.5,170.5C 50.8344,169.75 42.1677,169.083 33.5,168.5C 31.5853,168.216 29.9187,168.549 28.5,169.5C 22.1337,167.125 18.967,162.458 19,155.5C 17.3165,133.299 16.1498,111.132 15.5,89C 16.1905,87.9326 16.6905,86.7659 17,85.5C 17.3176,87.0609 18.1509,88.2276 19.5,89C 18.1667,90 18.1667,91 19.5,92C 16.8333,93 16.8333,94 19.5,95C 17.5426,97.1212 17.0426,99.6212 18,102.5C 19.0113,101.663 20.1779,101.33 21.5,101.5C 21.3088,94.2919 20.9755,87.2919 20.5,80.5C 19.1779,80.33 18.0113,80.6634 17,81.5C 16.1764,72.6567 16.3431,63.9901 17.5,55.5 Z"/></g>
<g><path style="opacity:1" fill="#5f1032" d="M 126.5,143.5 C 128.167,143.5 129.833,143.5 131.5,143.5C 131.5,148.833 131.5,154.167 131.5,159.5C 133.833,159.5 136.167,159.5 138.5,159.5C 138.737,160.791 138.404,161.791 137.5,162.5C 135.362,162.062 133.028,161.895 130.5,162C 129.748,161.329 129.414,160.496 129.5,159.5C 130.487,154.695 130.821,149.695 130.5,144.5C 128.901,144.768 127.568,144.434 126.5,143.5 Z"/></g>
<g><path style="opacity:1" fill="#2b2b2b" d="M 94.5,153.5 C 96.1667,153.5 97.8333,153.5 99.5,153.5C 103.159,155.342 107.159,156.342 111.5,156.5C 116.52,158.409 121.853,159.409 127.5,159.5C 128.167,159.5 128.833,159.5 129.5,159.5C 129.414,160.496 129.748,161.329 130.5,162C 133.028,161.895 135.362,162.062 137.5,162.5C 137.5,165.833 137.5,169.167 137.5,172.5C 119.248,169.119 101.248,165.119 83.5,160.5C 83.4701,159.503 83.9701,158.836 85,158.5C 86.4397,159.148 87.9397,159.481 89.5,159.5C 91.3079,158.082 91.9746,156.082 91.5,153.5C 92.5,153.5 93.5,153.5 94.5,153.5 Z"/></g>
<g><path style="opacity:1" fill="#d6d5d7" d="M 111.5,158.5 C 114.076,158.722 114.91,160.055 114,162.5C 111.236,161.975 110.402,160.642 111.5,158.5 Z"/></g>
<g><path style="opacity:1" fill="#d2d6d2" d="M 101.5,156.5 C 103.185,157.184 104.185,158.517 104.5,160.5C 103.726,161.711 102.893,161.711 102,160.5C 101.51,159.207 101.343,157.873 101.5,156.5 Z"/></g>
<g><path style="opacity:1" fill="#1d722f" d="M 130.5,163.5 C 131.978,163.238 133.311,163.571 134.5,164.5C 133.754,165.736 133.421,167.07 133.5,168.5C 132.5,168.5 131.5,168.5 130.5,168.5C 130.5,166.833 130.5,165.167 130.5,163.5 Z"/></g>
<g><path style="opacity:1" fill="#e9eaed" d="M 210.5,108.5 C 211.787,109.871 212.453,111.705 212.5,114C 211.066,130.147 210.066,146.314 209.5,162.5C 199.476,168.508 188.809,173.508 177.5,177.5C 176.981,175.564 177.647,173.731 179.5,172C 187.894,168.169 196.394,165.336 205,163.5C 206.558,146.236 207.558,128.902 208,111.5C 208.698,110.309 209.531,109.309 210.5,108.5 Z"/></g>
<g><path style="opacity:1" fill="#797b83" d="M 28.5,169.5 C 29.9187,168.549 31.5853,168.216 33.5,168.5C 49.7071,171.29 66.0404,174.124 82.5,177C 95.5183,180.77 108.518,184.604 121.5,188.5C 123.033,190.245 125.033,191.245 127.5,191.5C 129.932,192.958 132.599,194.125 135.5,195C 134.167,195.667 132.833,195.667 131.5,195C 113.647,187.883 95.3134,182.05 76.5,177.5C 64.9367,175.263 53.27,174.263 41.5,174.5C 41.0472,173.542 40.3805,172.708 39.5,172C 35.8549,171.005 32.1883,170.172 28.5,169.5 Z"/></g>
<g><path style="opacity:1" fill="#c3c0cb" d="M 73.5,167.5 C 77.3291,168.738 81.3291,169.738 85.5,170.5C 85.5,172.167 85.5,173.833 85.5,175.5C 91.8998,176.455 97.2332,178.288 101.5,181C 109.134,181.39 115.801,183.89 121.5,188.5C 108.518,184.604 95.5183,180.77 82.5,177C 66.0404,174.124 49.7071,171.29 33.5,168.5C 42.1677,169.083 50.8344,169.75 59.5,170.5C 61.3839,170.716 63.0506,171.383 64.5,172.5C 65.7362,171.754 67.0695,171.421 68.5,171.5C 68.67,170.178 68.3366,169.011 67.5,168C 67.8333,167.833 68.1667,167.667 68.5,167.5C 69.7955,174.041 70.4622,174.041 70.5,167.5C 71.5,167.5 72.5,167.5 73.5,167.5 Z"/></g>
<g><path style="opacity:1" fill="#e0e0e6" d="M 85.5,170.5 C 86.2891,170.783 86.9558,171.283 87.5,172C 95.2196,173.089 102.886,174.423 110.5,176C 111.38,177.356 111.714,178.856 111.5,180.5C 117.014,181.703 122.347,183.37 127.5,185.5C 127.5,186.5 127.5,187.5 127.5,188.5C 131.26,187.774 133.927,189.107 135.5,192.5C 132.833,192.167 130.167,191.833 127.5,191.5C 125.033,191.245 123.033,190.245 121.5,188.5C 115.801,183.89 109.134,181.39 101.5,181C 97.2332,178.288 91.8998,176.455 85.5,175.5C 85.5,173.833 85.5,172.167 85.5,170.5 Z"/></g>
<g><path style="opacity:1" fill="#7e7e82" d="M 208.5,169.5 C 199.027,174.07 189.694,178.903 180.5,184C 175.637,186.066 170.637,187.732 165.5,189C 163.962,190.932 162.795,193.099 162,195.5C 160.6,196.748 159.1,197.748 157.5,198.5C 151.229,198.813 145.062,199.813 139,201.5C 135.857,200.893 132.69,200.559 129.5,200.5C 127.801,200.66 126.134,200.494 124.5,200C 101.248,189.584 76.9142,183.25 51.5,181C 49.6079,180.027 47.6079,179.36 45.5,179C 44.6195,178.292 43.9528,177.458 43.5,176.5C 43.56,175.957 43.8933,175.624 44.5,175.5C 58.6728,179.064 73.0061,181.898 87.5,184C 104.35,189.672 121.35,194.839 138.5,199.5C 139.167,199.167 139.833,198.833 140.5,198.5C 139.335,197.416 138.002,196.583 136.5,196C 137.094,195.536 137.761,195.369 138.5,195.5C 144.868,196.95 151.202,196.784 157.5,195C 160.521,193.461 161.854,190.961 161.5,187.5C 160.448,187.649 159.448,187.483 158.5,187C 161.358,185.306 163.691,183.139 165.5,180.5C 168.179,180.327 170.513,179.327 172.5,177.5C 172.833,177.833 173.167,178.167 173.5,178.5C 171.358,181.073 168.692,182.906 165.5,184C 168.167,184.667 170.833,184.667 173.5,184C 185.31,179.068 196.81,173.568 208,167.5C 208.464,168.094 208.631,168.761 208.5,169.5 Z"/></g>
<g><path style="opacity:1" fill="#bcbdc4" d="M 41.5,174.5 C 53.27,174.263 64.9367,175.263 76.5,177.5C 95.3134,182.05 113.647,187.883 131.5,195C 132.833,195.667 134.167,195.667 135.5,195C 132.599,194.125 129.932,192.958 127.5,191.5C 130.167,191.833 132.833,192.167 135.5,192.5C 135.833,192.5 136.167,192.5 136.5,192.5C 136.782,193.778 137.449,194.778 138.5,195.5C 137.761,195.369 137.094,195.536 136.5,196C 138.002,196.583 139.335,197.416 140.5,198.5C 139.833,198.833 139.167,199.167 138.5,199.5C 121.35,194.839 104.35,189.672 87.5,184C 73.0061,181.898 58.6728,179.064 44.5,175.5C 43.8933,175.624 43.56,175.957 43.5,176.5C 42.5,176.167 41.8333,175.5 41.5,174.5 Z"/></g>
<g><path style="opacity:1" fill="#a4a5a6" d="M 157.5,198.5 C 156.4,199.558 155.066,200.392 153.5,201C 148.676,201.114 144.01,201.947 139.5,203.5C 135.897,202.991 132.564,201.991 129.5,200.5C 132.69,200.559 135.857,200.893 139,201.5C 145.062,199.813 151.229,198.813 157.5,198.5 Z"/></g>
</svg>
