<?xml version="1.0" encoding="UTF-8"?>
<!DOCTYPE svg PUBLIC "-//W3C//DTD SVG 1.1//EN" "http://www.w3.org/Graphics/SVG/1.1/DTD/svg11.dtd">
<svg xmlns="http://www.w3.org/2000/svg" version="1.1" width="275px" height="183px" style="shape-rendering:geometricPrecision; text-rendering:geometricPrecision; image-rendering:optimizeQuality; fill-rule:evenodd; clip-rule:evenodd" xmlns:xlink="http://www.w3.org/1999/xlink">
<g><path style="opacity:1" fill="#efefef" d="M 25.5,-0.5 C 33.8333,-0.5 42.1667,-0.5 50.5,-0.5C 54.3525,0.166346 58.3525,0.833013 62.5,1.5C 61.6606,5.25287 59.4939,7.5862 56,8.5C 45.8454,7.63031 35.6788,6.96365 25.5,6.5C 25.5,4.16667 25.5,1.83333 25.5,-0.5 Z"/></g>
<g><path style="opacity:1" fill="#aaaaa9" d="M 95.5,-0.5 C 114.833,-0.5 134.167,-0.5 153.5,-0.5C 153.196,0.14987 152.863,0.816537 152.5,1.5C 153.729,2.28107 155.062,2.78107 156.5,3C 155.584,3.27842 154.918,3.77842 154.5,4.5C 150.774,4.17744 147.107,4.51078 143.5,5.5C 153.984,7.85337 153.984,8.52003 143.5,7.5C 139.275,6.444 135.109,6.444 131,7.5C 131.136,4.85144 132.636,3.18477 135.5,2.5C 134.667,2.16667 133.833,1.83333 133,1.5C 123.797,1.76606 114.63,1.76606 105.5,1.5C 104.5,1.66667 103.5,1.83333 102.5,2C 109.134,2.82324 109.134,3.32324 102.5,3.5C 101.391,3.55688 100.391,3.89022 99.5,4.5C 92.9141,3.37421 86.2474,3.20754 79.5,4C 76.0641,5.77605 72.3974,6.77605 68.5,7C 69.2797,8.07298 69.113,9.23965 68,10.5C 65.1776,13.4098 62.3443,13.7431 59.5,11.5C 60.5819,9.66144 61.4153,7.66144 62,5.5C 65.2343,7.06326 67.7343,6.22993 69.5,3C 78.4531,2.87899 87.1197,1.71233 95.5,-0.5 Z"/></g>
<g><path style="opacity:1" fill="#b5b5ae" d="M 153.5,-0.5 C 188.833,-0.5 224.167,-0.5 259.5,-0.5C 255.99,1.3443 252.323,3.01097 248.5,4.5C 247.391,3.71003 246.058,3.21003 244.5,3C 248.223,2.56577 248.39,1.73243 245,0.5C 243.667,1.16667 242.333,1.83333 241,2.5C 240.333,1.83333 239.667,1.16667 239,0.5C 236.815,1.75847 234.648,1.75847 232.5,0.5C 221.833,1.83333 211.167,3.16667 200.5,4.5C 197.562,3.42517 194.562,3.2585 191.5,4C 187.654,5.66948 183.654,6.83614 179.5,7.5C 180.376,8.25083 181.376,8.75083 182.5,9C 182.272,9.39877 181.938,9.56544 181.5,9.5C 174.789,9.71296 168.123,9.37963 161.5,8.5C 161.062,8.56544 160.728,8.39877 160.5,8C 163.106,7.54954 164.439,6.04954 164.5,3.5C 162.61,3.2965 161.11,3.96317 160,5.5C 158.286,5.79526 156.453,5.46192 154.5,4.5C 154.918,3.77842 155.584,3.27842 156.5,3C 155.062,2.78107 153.729,2.28107 152.5,1.5C 152.863,0.816537 153.196,0.14987 153.5,-0.5 Z"/></g>
<g><path style="opacity:1" fill="#1a1a1a" d="M 261.5,-0.5 C 264.833,-0.5 268.167,-0.5 271.5,-0.5C 271.833,31.5069 271.5,63.5069 270.5,95.5C 269.135,97.8598 267.135,99.5265 264.5,100.5C 262.98,95.2942 262.147,89.9608 262,84.5C 261.831,100.005 261.331,115.339 260.5,130.5C 260.172,86.7611 260.506,43.0945 261.5,-0.5 Z"/></g>
<g><path style="opacity:1" fill="#f6f6f6" d="M 102.5,3.5 C 111.337,4.62901 120.337,5.62901 129.5,6.5C 126.244,8.71129 123.078,11.0446 120,13.5C 113.582,12.5562 107.082,11.8896 100.5,11.5C 98.0478,11.4609 96.0478,10.7943 94.5,9.5C 96.1667,7.83333 97.8333,6.16667 99.5,4.5C 100.391,3.89022 101.391,3.55688 102.5,3.5 Z"/></g>
<g><path style="opacity:1" fill="#a0a1a1" d="M 50.5,-0.5 C 65.5,-0.5 80.5,-0.5 95.5,-0.5C 87.1197,1.71233 78.4531,2.87899 69.5,3C 67.7343,6.22993 65.2343,7.06326 62,5.5C 61.4153,7.66144 60.5819,9.66144 59.5,11.5C 59.4894,13.0174 58.8228,14.1841 57.5,15C 59.1261,14.8047 60.7928,14.8047 62.5,15C 67.1866,18.4533 72.3532,20.9533 78,22.5C 79.2853,22.0496 80.452,21.3829 81.5,20.5C 82.5032,22.542 83.8366,22.8754 85.5,21.5C 90.7813,22.2861 96.1146,22.7861 101.5,23C 99.8659,23.4935 98.1992,23.6602 96.5,23.5C 91.1563,23.334 85.8229,23.5006 80.5,24C 79.6266,25.045 78.6266,25.8783 77.5,26.5C 77.631,25.7611 77.4643,25.0944 77,24.5C 75.7365,26.607 73.9032,27.607 71.5,27.5C 64.8837,26.3441 58.217,25.0107 51.5,23.5C 49.9522,22.2057 47.9522,21.5391 45.5,21.5C 38.8506,20.7869 32.1839,20.4536 25.5,20.5C 25.5,19.1667 25.5,17.8333 25.5,16.5C 25.6433,13.4768 25.6433,10.1435 25.5,6.5C 35.6788,6.96365 45.8454,7.63031 56,8.5C 59.4939,7.5862 61.6606,5.25287 62.5,1.5C 58.3525,0.833013 54.3525,0.166346 50.5,-0.5 Z"/></g>
<g><path style="opacity:1" fill="#bebfb8" d="M 161.5,8.5 C 158.389,10.5591 155.056,12.3924 151.5,14C 158.711,15.8179 166.044,16.6512 173.5,16.5C 176.787,17.1614 180.12,17.6614 183.5,18C 178.884,17.7295 174.884,19.0628 171.5,22C 172.5,22.5 173.5,23 174.5,23.5C 179.485,22.2852 184.485,22.2852 189.5,23.5C 187.786,24.7384 185.786,25.405 183.5,25.5C 181.658,25.2767 179.825,24.9434 178,24.5C 171.56,25.9308 165.06,26.9308 158.5,27.5C 155.061,24.9288 151.727,24.9288 148.5,27.5C 148.5,27.1667 148.5,26.8333 148.5,26.5C 146.905,24.8386 145.238,24.1719 143.5,24.5C 143.5,18.8333 143.5,13.1667 143.5,7.5C 153.984,8.52003 153.984,7.85337 143.5,5.5C 147.107,4.51078 150.774,4.17744 154.5,4.5C 156.453,5.46192 158.286,5.79526 160,5.5C 161.11,3.96317 162.61,3.2965 164.5,3.5C 164.439,6.04954 163.106,7.54954 160.5,8C 160.728,8.39877 161.062,8.56544 161.5,8.5 Z"/></g>
<g><path style="opacity:1" fill="#bcbcbc" d="M 143.5,7.5 C 143.5,13.1667 143.5,18.8333 143.5,24.5C 142.118,23.1995 140.452,22.3661 138.5,22C 139.711,21.1072 139.711,20.2739 138.5,19.5C 131.969,20.1485 125.469,20.8152 119,21.5C 117.341,20.1688 115.674,18.8354 114,17.5C 110.424,21.1009 107.09,21.1009 104,17.5C 103.751,18.624 103.251,19.624 102.5,20.5C 101.304,20.1543 101.304,19.6543 102.5,19C 97.5,18.1667 92.5,17.3333 87.5,16.5C 89.6207,13.8969 91.954,11.5636 94.5,9.5C 96.0478,10.7943 98.0478,11.4609 100.5,11.5C 107.082,11.8896 113.582,12.5562 120,13.5C 123.078,11.0446 126.244,8.71129 129.5,6.5C 120.337,5.62901 111.337,4.62901 102.5,3.5C 109.134,3.32324 109.134,2.82324 102.5,2C 103.5,1.83333 104.5,1.66667 105.5,1.5C 114.63,1.76606 123.797,1.76606 133,1.5C 133.833,1.83333 134.667,2.16667 135.5,2.5C 132.636,3.18477 131.136,4.85144 131,7.5C 135.109,6.444 139.275,6.444 143.5,7.5 Z"/></g>
<g><path style="opacity:1" fill="#f5f5f3" d="M 161.5,8.5 C 168.123,9.37963 174.789,9.71296 181.5,9.5C 182.609,10.29 183.942,10.79 185.5,11C 181.525,13.1463 177.525,14.9796 173.5,16.5C 166.044,16.6512 158.711,15.8179 151.5,14C 155.056,12.3924 158.389,10.5591 161.5,8.5 Z"/></g>
<g><path style="opacity:1" fill="#e9e1de" d="M 251.5,5.5 C 251.5,15.1667 251.5,24.8333 251.5,34.5C 248.833,34.5 246.167,34.5 243.5,34.5C 243.5,33.5 243.5,32.5 243.5,31.5C 242.167,31.5 240.833,31.5 239.5,31.5C 239.5,30.1667 239.5,28.8333 239.5,27.5C 237.5,27.5 235.5,27.5 233.5,27.5C 233.719,26.325 233.386,25.325 232.5,24.5C 230.5,23.8333 228.5,23.1667 226.5,22.5C 223.299,23.9231 219.966,24.9231 216.5,25.5C 215.534,27.396 215.201,29.396 215.5,31.5C 212.833,31.5 210.167,31.5 207.5,31.5C 207.5,32.8333 207.5,34.1667 207.5,35.5C 205.833,35.5 204.167,35.5 202.5,35.5C 202.286,37.1439 202.62,38.6439 203.5,40C 200.993,42.4847 199.493,41.9847 199,38.5C 196.602,38.9582 194.936,40.2915 194,42.5C 193.809,40.2922 193.309,38.2922 192.5,36.5C 192.5,32.5 192.5,28.5 192.5,24.5C 198.416,22.9461 204.083,20.9461 209.5,18.5C 223.625,14.5693 237.625,10.236 251.5,5.5 Z"/></g>
<g><path style="opacity:1" fill="#8e9693" d="M -0.5,-0.5 C 8.16667,-0.5 16.8333,-0.5 25.5,-0.5C 25.5,1.83333 25.5,4.16667 25.5,6.5C 25.6433,10.1435 25.6433,13.4768 25.5,16.5C 24.2353,15.4855 23.5687,13.9855 23.5,12C 23.5445,10.2358 23.8778,8.56912 24.5,7C 21.5184,6.50204 18.5184,6.33537 15.5,6.5C 15.5,9.5 15.5,12.5 15.5,15.5C 11.8979,15.678 11.8979,16.678 15.5,18.5C 12.8333,19.8333 10.1667,21.1667 7.5,22.5C 9.55963,25.0555 12.2263,26.5555 15.5,27C 13.9419,27.21 12.6085,27.71 11.5,28.5C 9.71199,28.7852 8.04533,28.4519 6.5,27.5C 5.07576,25.7087 3.74243,23.8754 2.5,22C 1.55198,21.5172 0.551975,21.3505 -0.5,21.5C -0.5,14.1667 -0.5,6.83333 -0.5,-0.5 Z"/></g>
<g><path style="opacity:1" fill="#b1b1b1" d="M 99.5,4.5 C 97.8333,6.16667 96.1667,7.83333 94.5,9.5C 91.954,11.5636 89.6207,13.8969 87.5,16.5C 92.5,17.3333 97.5,18.1667 102.5,19C 101.304,19.6543 101.304,20.1543 102.5,20.5C 103.251,19.624 103.751,18.624 104,17.5C 107.09,21.1009 110.424,21.1009 114,17.5C 115.674,18.8354 117.341,20.1688 119,21.5C 125.469,20.8152 131.969,20.1485 138.5,19.5C 139.711,20.2739 139.711,21.1072 138.5,22C 140.452,22.3661 142.118,23.1995 143.5,24.5C 145.238,24.1719 146.905,24.8386 148.5,26.5C 141.487,26.1646 134.487,25.9979 127.5,26C 125.767,27.1889 124.1,28.3556 122.5,29.5C 121.005,29.5852 120.005,28.9185 119.5,27.5C 116.215,26.6764 112.882,26.1764 109.5,26C 108.382,24.9264 107.382,23.7598 106.5,22.5C 105.261,22.9424 104.261,23.6091 103.5,24.5C 100.941,24.8016 98.6074,24.4682 96.5,23.5C 98.1992,23.6602 99.8659,23.4935 101.5,23C 96.1146,22.7861 90.7813,22.2861 85.5,21.5C 83.8366,22.8754 82.5032,22.542 81.5,20.5C 80.452,21.3829 79.2853,22.0496 78,22.5C 72.3532,20.9533 67.1866,18.4533 62.5,15C 60.7928,14.8047 59.1261,14.8047 57.5,15C 58.8228,14.1841 59.4894,13.0174 59.5,11.5C 62.3443,13.7431 65.1776,13.4098 68,10.5C 69.113,9.23965 69.2797,8.07298 68.5,7C 72.3974,6.77605 76.0641,5.77605 79.5,4C 86.2474,3.20754 92.9141,3.37421 99.5,4.5 Z"/></g>
<g><path style="opacity:1" fill="#7a7573" d="M 259.5,-0.5 C 260.167,-0.5 260.833,-0.5 261.5,-0.5C 260.506,43.0945 260.172,86.7611 260.5,130.5C 260.167,130.5 259.833,130.5 259.5,130.5C 259.5,128.833 259.5,127.167 259.5,125.5C 259.5,85.5 259.5,45.5 259.5,5.5C 257.097,5.44805 254.764,5.78138 252.5,6.5C 252.5,5.83333 252.167,5.5 251.5,5.5C 237.625,10.236 223.625,14.5693 209.5,18.5C 208.391,17.71 207.058,17.21 205.5,17C 209.135,14.6704 212.969,14.1704 217,15.5C 227.502,11.7222 238.002,8.05556 248.5,4.5C 252.323,3.01097 255.99,1.3443 259.5,-0.5 Z"/></g>
<g><path style="opacity:1" fill="#cecac2" d="M 248.5,4.5 C 238.002,8.05556 227.502,11.7222 217,15.5C 212.969,14.1704 209.135,14.6704 205.5,17C 207.058,17.21 208.391,17.71 209.5,18.5C 202.833,20.1667 196.167,21.8333 189.5,23.5C 184.485,22.2852 179.485,22.2852 174.5,23.5C 173.5,23 172.5,22.5 171.5,22C 174.884,19.0628 178.884,17.7295 183.5,18C 180.12,17.6614 176.787,17.1614 173.5,16.5C 177.525,14.9796 181.525,13.1463 185.5,11C 183.942,10.79 182.609,10.29 181.5,9.5C 181.938,9.56544 182.272,9.39877 182.5,9C 181.376,8.75083 180.376,8.25083 179.5,7.5C 183.654,6.83614 187.654,5.66948 191.5,4C 194.562,3.2585 197.562,3.42517 200.5,4.5C 211.167,3.16667 221.833,1.83333 232.5,0.5C 234.648,1.75847 236.815,1.75847 239,0.5C 239.667,1.16667 240.333,1.83333 241,2.5C 242.333,1.83333 243.667,1.16667 245,0.5C 248.39,1.73243 248.223,2.56577 244.5,3C 246.058,3.21003 247.391,3.71003 248.5,4.5 Z"/></g>
<g><path style="opacity:1" fill="#f3f5f4" d="M 25.5,20.5 C 32.1839,20.4536 38.8506,20.7869 45.5,21.5C 47.9522,21.5391 49.9522,22.2057 51.5,23.5C 50.5834,25.5106 48.9168,26.5106 46.5,26.5C 39.5251,25.6583 32.5251,25.325 25.5,25.5C 25.5,23.8333 25.5,22.1667 25.5,20.5 Z"/></g>
<g><path style="opacity:1" fill="#ecece4" d="M 251.5,34.5 C 251.5,35.1667 251.5,35.8333 251.5,36.5C 243.644,36.0787 239.644,39.7453 239.5,47.5C 230.833,47.5 222.167,47.5 213.5,47.5C 210.813,47.3359 208.146,47.5026 205.5,48C 201.85,51.1711 197.516,52.6711 192.5,52.5C 192.5,47.1667 192.5,41.8333 192.5,36.5C 193.309,38.2922 193.809,40.2922 194,42.5C 194.936,40.2915 196.602,38.9582 199,38.5C 199.493,41.9847 200.993,42.4847 203.5,40C 202.62,38.6439 202.286,37.1439 202.5,35.5C 204.167,35.5 205.833,35.5 207.5,35.5C 207.5,34.1667 207.5,32.8333 207.5,31.5C 210.167,31.5 212.833,31.5 215.5,31.5C 215.201,29.396 215.534,27.396 216.5,25.5C 219.966,24.9231 223.299,23.9231 226.5,22.5C 228.5,23.1667 230.5,23.8333 232.5,24.5C 233.386,25.325 233.719,26.325 233.5,27.5C 235.5,27.5 237.5,27.5 239.5,27.5C 239.5,28.8333 239.5,30.1667 239.5,31.5C 240.833,31.5 242.167,31.5 243.5,31.5C 243.5,32.5 243.5,33.5 243.5,34.5C 246.167,34.5 248.833,34.5 251.5,34.5 Z"/></g>
<g><path style="opacity:1" fill="#9d9d9d" d="M 259.5,125.5 C 258.667,89.0023 258.167,52.3356 258,15.5C 256.179,36.7614 255.345,36.7614 255.5,15.5C 254.5,15.5 253.5,15.5 252.5,15.5C 252.5,12.5 252.5,9.5 252.5,6.5C 254.764,5.78138 257.097,5.44805 259.5,5.5C 259.5,45.5 259.5,85.5 259.5,125.5 Z"/></g>
<g><path style="opacity:1" fill="#5e6260" d="M -0.5,21.5 C 0.551975,21.3505 1.55198,21.5172 2.5,22C 3.74243,23.8754 5.07576,25.7087 6.5,27.5C 8.04533,28.4519 9.71199,28.7852 11.5,28.5C 12.4916,28.3284 13.1583,28.6618 13.5,29.5C 10.5,29.5 7.5,29.5 4.5,29.5C 3.76589,28.2921 3.43255,26.9587 3.5,25.5C 2.16667,25.5 0.833333,25.5 -0.5,25.5C -0.5,24.1667 -0.5,22.8333 -0.5,21.5 Z"/></g>
<g><path style="opacity:1" fill="#f5f5f5" d="M 96.5,23.5 C 98.6074,24.4682 100.941,24.8016 103.5,24.5C 102.064,25.4286 100.731,26.5952 99.5,28C 91.9492,28.6873 84.6159,28.1873 77.5,26.5C 78.6266,25.8783 79.6266,25.045 80.5,24C 85.8229,23.5006 91.1563,23.334 96.5,23.5 Z"/></g>
<g><path style="opacity:1" fill="#9c9e9d" d="M 25.5,16.5 C 25.5,17.8333 25.5,19.1667 25.5,20.5C 25.5,22.1667 25.5,23.8333 25.5,25.5C 32.5251,25.325 39.5251,25.6583 46.5,26.5C 48.9168,26.5106 50.5834,25.5106 51.5,23.5C 58.217,25.0107 64.8837,26.3441 71.5,27.5C 71.9175,28.2216 72.5842,28.7216 73.5,29C 73.1667,29.3333 72.8333,29.6667 72.5,30C 65.7833,30.2038 59.1166,30.7038 52.5,31.5C 51.5745,30.3595 50.7412,30.3595 50,31.5C 50.0773,30.2624 49.9106,29.2624 49.5,28.5C 45.4208,29.7129 41.4208,29.3796 37.5,27.5C 36.1331,28.2255 34.7997,28.8921 33.5,29.5C 29.9703,30.0111 26.8037,29.3444 24,27.5C 21.544,29.3213 18.7107,29.988 15.5,29.5C 14.8333,29.5 14.1667,29.5 13.5,29.5C 13.1583,28.6618 12.4916,28.3284 11.5,28.5C 12.6085,27.71 13.9419,27.21 15.5,27C 12.2263,26.5555 9.55963,25.0555 7.5,22.5C 10.1667,21.1667 12.8333,19.8333 15.5,18.5C 11.8979,16.678 11.8979,15.678 15.5,15.5C 15.5,12.5 15.5,9.5 15.5,6.5C 18.5184,6.33537 21.5184,6.50204 24.5,7C 23.8778,8.56912 23.5445,10.2358 23.5,12C 23.5687,13.9855 24.2353,15.4855 25.5,16.5 Z"/></g>
<g><path style="opacity:1" fill="#9a9b9a" d="M 122.5,29.5 C 127.011,29.6262 131.511,29.9595 136,30.5C 140.35,30.2402 144.517,29.2402 148.5,27.5C 151.727,24.9288 155.061,24.9288 158.5,27.5C 165.06,26.9308 171.56,25.9308 178,24.5C 179.825,24.9434 181.658,25.2767 183.5,25.5C 178.537,27.7494 173.204,29.0827 167.5,29.5C 165.009,30.5407 165.009,31.3741 167.5,32C 162.314,33.7846 156.98,34.6179 151.5,34.5C 114.178,34.3339 76.8448,33.5006 39.5,32C 37.1484,31.7599 35.1484,30.9265 33.5,29.5C 34.7997,28.8921 36.1331,28.2255 37.5,27.5C 41.4208,29.3796 45.4208,29.7129 49.5,28.5C 49.9106,29.2624 50.0773,30.2624 50,31.5C 50.7412,30.3595 51.5745,30.3595 52.5,31.5C 59.1166,30.7038 65.7833,30.2038 72.5,30C 72.8333,29.6667 73.1667,29.3333 73.5,29C 72.5842,28.7216 71.9175,28.2216 71.5,27.5C 73.9032,27.607 75.7365,26.607 77,24.5C 77.4643,25.0944 77.631,25.7611 77.5,26.5C 84.6159,28.1873 91.9492,28.6873 99.5,28C 100.731,26.5952 102.064,25.4286 103.5,24.5C 104.261,23.6091 105.261,22.9424 106.5,22.5C 107.382,23.7598 108.382,24.9264 109.5,26C 112.882,26.1764 116.215,26.6764 119.5,27.5C 120.005,28.9185 121.005,29.5852 122.5,29.5 Z"/></g>
<g><path style="opacity:1" fill="#f5f5f5" d="M 148.5,26.5 C 148.5,26.8333 148.5,27.1667 148.5,27.5C 144.517,29.2402 140.35,30.2402 136,30.5C 131.511,29.9595 127.011,29.6262 122.5,29.5C 124.1,28.3556 125.767,27.1889 127.5,26C 134.487,25.9979 141.487,26.1646 148.5,26.5 Z"/></g>
<g><path style="opacity:1" fill="#272a29" d="M 4.5,29.5 C 7.5,29.5 10.5,29.5 13.5,29.5C 14.1667,29.5 14.8333,29.5 15.5,29.5C 18.8323,30.0823 22.1656,30.9156 25.5,32C 18.4197,32.7945 11.4197,32.6278 4.5,31.5C 4.5,30.8333 4.5,30.1667 4.5,29.5 Z"/></g>
<g><path style="opacity:1" fill="#676867" d="M 209.5,18.5 C 204.083,20.9461 198.416,22.9461 192.5,24.5C 191.662,24.8417 191.328,25.5084 191.5,26.5C 190.5,26.5 189.5,26.5 188.5,26.5C 180.944,29.2962 173.278,31.7962 165.5,34C 163.411,35.1708 161.411,36.5041 159.5,38C 158.95,39.8446 157.95,41.3446 156.5,42.5C 154.286,39.7876 151.62,37.6209 148.5,36C 149.737,35.7679 150.737,35.2679 151.5,34.5C 156.98,34.6179 162.314,33.7846 167.5,32C 165.009,31.3741 165.009,30.5407 167.5,29.5C 173.204,29.0827 178.537,27.7494 183.5,25.5C 185.786,25.405 187.786,24.7384 189.5,23.5C 196.167,21.8333 202.833,20.1667 209.5,18.5 Z"/></g>
<g><path style="opacity:1" fill="#979897" d="M 188.5,26.5 C 189.5,26.5 190.5,26.5 191.5,26.5C 191.5,36.1667 191.5,45.8333 191.5,55.5C 189.382,52.9448 189.049,50.1115 190.5,47C 190.055,42.8033 188.055,39.6366 184.5,37.5C 181.579,38.4066 178.579,38.7399 175.5,38.5C 175.67,39.8221 175.337,40.9887 174.5,42C 170.246,44.4411 166.246,47.1078 162.5,50C 163.416,50.3742 164.25,50.8742 165,51.5C 165.789,53.7116 165.622,55.7116 164.5,57.5C 164.5,55.8333 164.5,54.1667 164.5,52.5C 161.794,52.4249 159.127,52.0916 156.5,51.5C 156.5,51.1667 156.5,50.8333 156.5,50.5C 158.447,46.3685 161.114,42.7018 164.5,39.5C 167.569,38.5833 170.236,37.0833 172.5,35C 176.907,34.7917 180.907,33.4584 184.5,31C 184.167,30.6667 183.833,30.3333 183.5,30C 185.167,29.6667 186.833,29.3333 188.5,29C 189.598,28.2303 189.598,27.397 188.5,26.5 Z"/></g>
<g><path style="opacity:1" fill="#bab9ba" d="M 32.5,34.5 C 32.5,34.8333 32.5,35.1667 32.5,35.5C 32.5,36.8333 32.5,38.1667 32.5,39.5C 32.7678,41.099 32.4345,42.4324 31.5,43.5C 29.0521,42.5269 26.3854,42.1936 23.5,42.5C 20.0381,41.5184 16.3714,41.185 12.5,41.5C 12.5,39.5 12.5,37.5 12.5,35.5C 14.1986,35.6204 15.8653,35.9537 17.5,36.5C 22.3309,34.7316 27.3309,34.0649 32.5,34.5 Z"/></g>
<g><path style="opacity:1" fill="#8c9592" d="M 119.5,42.5 C 108.82,42.5659 98.1535,41.5659 87.5,39.5C 75.4906,40.0559 63.4906,40.7226 51.5,41.5C 45.8787,40.2368 40.5453,40.2368 35.5,41.5C 34.2613,41.0576 33.2613,40.3909 32.5,39.5C 32.5,38.1667 32.5,36.8333 32.5,35.5C 36.4838,35.0725 40.4838,34.7392 44.5,34.5C 55.678,36.2918 67.0113,37.1252 78.5,37C 77.5,36.6667 76.5,36.3333 75.5,36C 82.1667,35.3333 88.8333,35.3333 95.5,36C 102.771,37.6509 110.105,38.9843 117.5,40C 118.381,40.7083 119.047,41.5416 119.5,42.5 Z"/></g>
<g><path style="opacity:1" fill="#767c7a" d="M 188.5,26.5 C 189.598,27.397 189.598,28.2303 188.5,29C 186.833,29.3333 185.167,29.6667 183.5,30C 183.833,30.3333 184.167,30.6667 184.5,31C 180.907,33.4584 176.907,34.7917 172.5,35C 170.236,37.0833 167.569,38.5833 164.5,39.5C 161.114,42.7018 158.447,46.3685 156.5,50.5C 155.833,50.5 155.167,50.5 154.5,50.5C 155.091,49.8485 155.757,49.1818 156.5,48.5C 153.163,44.6629 149.496,41.1629 145.5,38C 138.862,36.8381 132.195,36.0048 125.5,35.5C 125.5,38.8333 125.5,42.1667 125.5,45.5C 124.5,45.5 123.5,45.5 122.5,45.5C 121.5,44.5 120.5,43.5 119.5,42.5C 119.047,41.5416 118.381,40.7083 117.5,40C 110.105,38.9843 102.771,37.6509 95.5,36C 88.8333,35.3333 82.1667,35.3333 75.5,36C 76.5,36.3333 77.5,36.6667 78.5,37C 67.0113,37.1252 55.678,36.2918 44.5,34.5C 40.4838,34.7392 36.4838,35.0725 32.5,35.5C 32.5,35.1667 32.5,34.8333 32.5,34.5C 23.6822,33.5067 14.6822,33.1734 5.5,33.5C 4.66175,33.1583 4.32842,32.4916 4.5,31.5C 11.4197,32.6278 18.4197,32.7945 25.5,32C 22.1656,30.9156 18.8323,30.0823 15.5,29.5C 18.7107,29.988 21.544,29.3213 24,27.5C 26.8037,29.3444 29.9703,30.0111 33.5,29.5C 35.1484,30.9265 37.1484,31.7599 39.5,32C 76.8448,33.5006 114.178,34.3339 151.5,34.5C 150.737,35.2679 149.737,35.7679 148.5,36C 151.62,37.6209 154.286,39.7876 156.5,42.5C 157.95,41.3446 158.95,39.8446 159.5,38C 161.411,36.5041 163.411,35.1708 165.5,34C 173.278,31.7962 180.944,29.2962 188.5,26.5 Z"/></g>
<g><path style="opacity:1" fill="#989a99" d="M 5.5,33.5 C 14.6822,33.1734 23.6822,33.5067 32.5,34.5C 27.3309,34.0649 22.3309,34.7316 17.5,36.5C 15.8653,35.9537 14.1986,35.6204 12.5,35.5C 12.5,37.5 12.5,39.5 12.5,41.5C 16.3714,41.185 20.0381,41.5184 23.5,42.5C 17.5,42.5 11.5,42.5 5.5,42.5C 5.5,39.5 5.5,36.5 5.5,33.5 Z"/></g>
<g><path style="opacity:1" fill="#929a97" d="M 154.5,50.5 C 154.167,50.5 153.833,50.5 153.5,50.5C 144.224,48.5783 134.89,46.9116 125.5,45.5C 125.5,42.1667 125.5,38.8333 125.5,35.5C 132.195,36.0048 138.862,36.8381 145.5,38C 149.496,41.1629 153.163,44.6629 156.5,48.5C 155.757,49.1818 155.091,49.8485 154.5,50.5 Z"/></g>
<g><path style="opacity:1" fill="#9aa29f" d="M 32.5,39.5 C 33.2613,40.3909 34.2613,41.0576 35.5,41.5C 40.5453,40.2368 45.8787,40.2368 51.5,41.5C 63.4906,40.7226 75.4906,40.0559 87.5,39.5C 98.1535,41.5659 108.82,42.5659 119.5,42.5C 120.5,43.5 121.5,44.5 122.5,45.5C 113.32,45.0445 104.32,46.0445 95.5,48.5C 95.5,47.5 95.5,46.5 95.5,45.5C 76.8429,44.5154 58.1762,44.3487 39.5,45C 38.8742,45.7504 38.3742,46.5838 38,47.5C 36.2245,46.4639 34.3911,46.4639 32.5,47.5C 32.1667,46.1667 31.8333,44.8333 31.5,43.5C 32.4345,42.4324 32.7678,41.099 32.5,39.5 Z"/></g>
<g><path style="opacity:1" fill="#adadad" d="M 166.5,84.5 C 166.393,82.6214 166.893,82.2881 168,83.5C 168.49,82.2068 168.657,80.8734 168.5,79.5C 167.5,79.5 166.5,79.5 165.5,79.5C 165.5,76.8333 165.5,74.1667 165.5,71.5C 166.268,72.2625 166.768,73.2625 167,74.5C 167.195,65.7854 167.695,57.1188 168.5,48.5C 172.636,44.2666 177.636,42.5999 183.5,43.5C 183.343,44.8734 183.51,46.2068 184,47.5C 187.517,42.2771 189.017,43.1104 188.5,50C 187.06,58.6499 187.726,67.1499 190.5,75.5C 190.229,80.697 189.229,85.697 187.5,90.5C 183.71,90.9923 183.044,90.159 185.5,88C 183.954,86.5604 183.121,84.7271 183,82.5C 180.688,83.814 178.688,85.4806 177,87.5C 175.765,86.3845 174.598,86.3845 173.5,87.5C 172.571,86.3112 172.238,84.9778 172.5,83.5C 170.5,83.8333 168.5,84.1667 166.5,84.5 Z"/></g>
<g><path style="opacity:1" fill="#636a68" d="M 5.5,42.5 C 11.5,42.5 17.5,42.5 23.5,42.5C 26.3854,42.1936 29.0521,42.5269 31.5,43.5C 31.8333,44.8333 32.1667,46.1667 32.5,47.5C 30.8333,47.5 29.1667,47.5 27.5,47.5C 21.7945,47.1712 16.1278,47.5046 10.5,48.5C 10.0345,50.8083 8.70117,52.1416 6.5,52.5C 6.38413,49.1401 6.0508,45.8067 5.5,42.5 Z"/></g>
<g><path style="opacity:1" fill="#a2aba8" d="M 95.5,48.5 C 94.0813,49.4511 92.4147,49.7845 90.5,49.5C 91.463,48.6365 91.463,47.9698 90.5,47.5C 87.6845,46.8695 85.0178,47.5362 82.5,49.5C 81.3044,49.1543 81.3044,48.6543 82.5,48C 68.1667,47.3333 53.8333,47.3333 39.5,48C 33.6088,49.6123 28.2754,52.2789 23.5,56C 22.1981,58.2129 21.1981,60.5463 20.5,63C 21.3089,68.4171 21.8089,73.9171 22,79.5C 24.8134,81.5878 27.48,83.9211 30,86.5C 30.2833,89.7423 31.1166,90.0756 32.5,87.5C 34.3929,89.9524 35.7263,92.6191 36.5,95.5C 37.5,95.5 38.5,95.5 39.5,95.5C 39.3601,97.1238 40.0267,98.2904 41.5,99C 43.8139,100.398 46.1472,100.565 48.5,99.5C 50.8333,100.667 53.1667,101.833 55.5,103C 56.1905,104.067 56.6905,105.234 57,106.5C 57.3333,105.5 57.6667,104.5 58,103.5C 58.21,105.058 58.71,106.391 59.5,107.5C 59.7529,109.827 59.0863,111.827 57.5,113.5C 58.5063,114.396 58.5063,115.062 57.5,115.5C 56.6143,114.675 56.281,113.675 56.5,112.5C 55.7659,111.292 55.4326,109.959 55.5,108.5C 52.2893,108.012 49.456,108.679 47,110.5C 44.2052,108.354 41.0386,107.187 37.5,107C 36.1951,104.852 34.3617,103.352 32,102.5C 29.2809,103.444 26.4475,103.777 23.5,103.5C 23.762,102.022 23.4287,100.689 22.5,99.5C 21.1667,98.8333 20.1667,97.8333 19.5,96.5C 21.2997,91.3653 20.133,87.0319 16,83.5C 15.51,84.7932 15.3433,86.1266 15.5,87.5C 14.9222,88.547 14.2555,88.3803 13.5,87C 14.435,84.6194 14.7683,82.1194 14.5,79.5C 15.8333,79.5 17.1667,79.5 18.5,79.5C 18.1367,71.4295 18.6367,63.4295 20,55.5C 22.0782,52.2607 24.5782,49.594 27.5,47.5C 29.1667,47.5 30.8333,47.5 32.5,47.5C 34.3911,46.4639 36.2245,46.4639 38,47.5C 38.3742,46.5838 38.8742,45.7504 39.5,45C 58.1762,44.3487 76.8429,44.5154 95.5,45.5C 95.5,46.5 95.5,47.5 95.5,48.5 Z"/></g>
<g><path style="opacity:1" fill="#a7adaa" d="M -0.5,25.5 C 0.833333,25.5 2.16667,25.5 3.5,25.5C 3.43255,26.9587 3.76589,28.2921 4.5,29.5C 4.5,30.1667 4.5,30.8333 4.5,31.5C 4.32842,32.4916 4.66175,33.1583 5.5,33.5C 5.5,36.5 5.5,39.5 5.5,42.5C 6.0508,45.8067 6.38413,49.1401 6.5,52.5C 6.92277,61.8743 7.58943,71.2076 8.5,80.5C 8.3089,84.3116 7.97557,87.9783 7.5,91.5C 7.24402,87.3174 5.24402,84.3174 1.5,82.5C 1.16667,82.8333 0.833333,83.1667 0.5,83.5C 1.84189,84.8761 3.17522,86.2094 4.5,87.5C 5.30779,89.4233 5.80779,91.4233 6,93.5C 6.74117,94.6405 7.57451,94.6405 8.5,93.5C 9.83333,100.167 9.83333,106.833 8.5,113.5C 7.15017,112.05 5.4835,111.383 3.5,111.5C 4.22094,108.183 4.38761,104.849 4,101.5C 2.64387,100.62 1.14387,100.286 -0.5,100.5C -0.5,75.5 -0.5,50.5 -0.5,25.5 Z"/></g>
<g><path style="opacity:1" fill="#abb3b0" d="M 90.5,49.5 C 86.0738,51.5482 81.7405,53.8816 77.5,56.5C 75.4319,55.6252 73.4319,54.4585 71.5,53C 63.5069,52.5003 55.5069,52.3336 47.5,52.5C 47.5,56.1667 47.5,59.8333 47.5,63.5C 46.1667,63.5 44.8333,63.5 43.5,63.5C 43.22,66.2724 43.8866,68.7724 45.5,71C 44.3961,72.1313 44.7295,72.9646 46.5,73.5C 47.4656,75.396 47.7989,77.396 47.5,79.5C 53.1665,79.3252 56.4999,81.9919 57.5,87.5C 58.1674,84.3583 58.834,81.3583 59.5,78.5C 59.5,86.8333 59.5,95.1667 59.5,103.5C 59.5,104.833 59.5,106.167 59.5,107.5C 58.71,106.391 58.21,105.058 58,103.5C 57.6667,104.5 57.3333,105.5 57,106.5C 56.6905,105.234 56.1905,104.067 55.5,103C 53.1667,101.833 50.8333,100.667 48.5,99.5C 46.1472,100.565 43.8139,100.398 41.5,99C 40.0267,98.2904 39.3601,97.1238 39.5,95.5C 38.5,95.5 37.5,95.5 36.5,95.5C 35.7263,92.6191 34.3929,89.9524 32.5,87.5C 31.1166,90.0756 30.2833,89.7423 30,86.5C 27.48,83.9211 24.8134,81.5878 22,79.5C 21.8089,73.9171 21.3089,68.4171 20.5,63C 21.1981,60.5463 22.1981,58.2129 23.5,56C 28.2754,52.2789 33.6088,49.6123 39.5,48C 53.8333,47.3333 68.1667,47.3333 82.5,48C 81.3044,48.6543 81.3044,49.1543 82.5,49.5C 85.0178,47.5362 87.6845,46.8695 90.5,47.5C 91.463,47.9698 91.463,48.6365 90.5,49.5 Z"/></g>
<g><path style="opacity:1" fill="#eadabc" d="M 251.5,36.5 C 251.5,38.8333 251.5,41.1667 251.5,43.5C 250.282,44.7311 248.949,45.8978 247.5,47C 247.957,47.414 248.291,47.914 248.5,48.5C 247.167,50.1667 245.833,51.8333 244.5,53.5C 242.851,52.3523 241.351,51.019 240,49.5C 239.517,50.448 239.351,51.448 239.5,52.5C 235.741,53.1031 232.575,54.7698 230,57.5C 228.093,57.5795 226.093,57.2461 224,56.5C 222.673,59.6587 220.506,61.992 217.5,63.5C 216.833,63.5 216.167,63.5 215.5,63.5C 213.5,63.5 211.5,63.5 209.5,63.5C 211.032,58.2325 212.366,52.8991 213.5,47.5C 222.167,47.5 230.833,47.5 239.5,47.5C 239.644,39.7453 243.644,36.0787 251.5,36.5 Z"/></g>
<g><path style="opacity:1" fill="#d7d8d7" d="M 122.5,45.5 C 123.5,45.5 124.5,45.5 125.5,45.5C 134.89,46.9116 144.224,48.5783 153.5,50.5C 153.5,52.8333 153.5,55.1667 153.5,57.5C 150.022,57.8158 146.688,57.3158 143.5,56C 144.833,55.6667 146.167,55.3333 147.5,55C 143.823,54.282 140.157,53.9486 136.5,54C 138.901,54.805 138.734,55.6383 136,56.5C 134.946,54.2464 133.446,53.913 131.5,55.5C 129.511,54.3681 127.844,53.0348 126.5,51.5C 128.199,51.6602 129.866,51.4935 131.5,51C 126.885,48.505 122.219,48.3384 117.5,50.5C 114.661,50.6632 112.994,49.3299 112.5,46.5C 111.833,47.5 111.167,48.5 110.5,49.5C 109.784,48.689 108.95,48.0223 108,47.5C 99.9472,49.2661 93.7806,53.5994 89.5,60.5C 87.8375,62.2244 86.8375,64.3911 86.5,67C 86.7355,67.8732 87.0688,68.7065 87.5,69.5C 86.0095,70.2436 84.5095,70.9103 83,71.5C 82.564,74.3979 81.3974,76.7312 79.5,78.5C 74.5824,77.7186 69.5824,77.2186 64.5,77C 66.9982,69.002 71.3316,62.1687 77.5,56.5C 81.7405,53.8816 86.0738,51.5482 90.5,49.5C 92.4147,49.7845 94.0813,49.4511 95.5,48.5C 104.32,46.0445 113.32,45.0445 122.5,45.5 Z"/></g>
<g><path style="opacity:1" fill="#c1c1c0" d="M 126.5,51.5 C 124.109,53.8937 121.443,55.8937 118.5,57.5C 116.618,56.4686 114.618,55.6353 112.5,55C 114.932,53.9125 114.598,53.4125 111.5,53.5C 111.5,56.8333 111.5,60.1667 111.5,63.5C 109.396,63.2011 107.396,63.5344 105.5,64.5C 105.624,65.1067 105.957,65.44 106.5,65.5C 104.919,67.1417 104.253,69.1417 104.5,71.5C 103.167,71.5 101.833,71.5 100.5,71.5C 95.1329,71.1244 92.4663,68.1244 92.5,62.5C 93.8532,61.4763 94.5198,60.143 94.5,58.5C 92.6776,58.8308 91.0109,59.4975 89.5,60.5C 93.7806,53.5994 99.9472,49.2661 108,47.5C 108.95,48.0223 109.784,48.689 110.5,49.5C 111.167,48.5 111.833,47.5 112.5,46.5C 112.994,49.3299 114.661,50.6632 117.5,50.5C 122.219,48.3384 126.885,48.505 131.5,51C 129.866,51.4935 128.199,51.6602 126.5,51.5 Z"/></g>
<g><path style="opacity:1" fill="#f1dec6" d="M 213.5,47.5 C 212.366,52.8991 211.032,58.2325 209.5,63.5C 211.5,63.5 213.5,63.5 215.5,63.5C 215.649,64.552 215.483,65.552 215,66.5C 213.28,67.3841 212.114,68.7175 211.5,70.5C 210.849,71.0906 210.182,71.7573 209.5,72.5C 208.667,71.5 207.833,70.5 207,69.5C 206.333,72.1667 205.667,72.1667 205,69.5C 203.662,74.5557 201.996,74.5557 200,69.5C 199.751,70.624 199.251,71.624 198.5,72.5C 197.804,69.4436 196.97,66.4436 196,63.5C 195.027,65.3921 194.36,67.3921 194,69.5C 192.869,63.888 192.369,58.2213 192.5,52.5C 197.516,52.6711 201.85,51.1711 205.5,48C 208.146,47.5026 210.813,47.3359 213.5,47.5 Z"/></g>
<g><path style="opacity:1" fill="#b0afaf" d="M 251.5,5.5 C 252.167,5.5 252.5,5.83333 252.5,6.5C 252.5,9.5 252.5,12.5 252.5,15.5C 253.5,15.5 254.5,15.5 255.5,15.5C 255.345,36.7614 256.179,36.7614 258,15.5C 258.167,52.3356 258.667,89.0023 259.5,125.5C 259.5,127.167 259.5,128.833 259.5,130.5C 258.833,130.5 258.5,130.833 258.5,131.5C 257.5,131.5 256.5,131.5 255.5,131.5C 255.918,130.778 256.584,130.278 257.5,130C 254.978,129.501 252.478,129.668 250,130.5C 247.046,130.406 246.879,129.906 249.5,129C 246.968,128.997 244.468,129.497 242,130.5C 237.8,129.828 233.633,128.994 229.5,128C 232.776,127.819 235.109,126.985 236.5,125.5C 237.919,124.549 239.585,124.216 241.5,124.5C 243.861,124.326 246.194,123.993 248.5,123.5C 248.33,122.178 248.663,121.011 249.5,120C 248.027,119.29 247.36,118.124 247.5,116.5C 244.873,117.092 242.206,117.425 239.5,117.5C 239.343,116.127 239.51,114.793 240,113.5C 242.381,114.435 244.881,114.768 247.5,114.5C 247.5,110.833 247.5,107.167 247.5,103.5C 247.5,101.833 247.5,100.167 247.5,98.5C 249.857,98.6633 252.19,98.4966 254.5,98C 255.598,97.2303 255.598,96.397 254.5,95.5C 253.084,91.1961 252.084,86.8627 251.5,82.5C 251.5,81.5 251.5,80.5 251.5,79.5C 251.318,77.3254 250.651,75.3254 249.5,73.5C 249.737,70.9365 250.237,70.9365 251,73.5C 251.498,70.1832 251.665,66.8499 251.5,63.5C 251.5,56.8333 251.5,50.1667 251.5,43.5C 251.5,41.1667 251.5,38.8333 251.5,36.5C 251.5,35.8333 251.5,35.1667 251.5,34.5C 251.5,24.8333 251.5,15.1667 251.5,5.5 Z"/></g>
<g><path style="opacity:1" fill="#eaccba" d="M 251.5,43.5 C 251.5,50.1667 251.5,56.8333 251.5,63.5C 246.167,63.5 240.833,63.5 235.5,63.5C 235.416,66.3274 234.75,68.994 233.5,71.5C 231.61,71.7035 230.11,71.0368 229,69.5C 228.505,66.4686 228.671,63.4686 229.5,60.5C 227.738,60.6427 226.071,60.3094 224.5,59.5C 223.571,60.6888 223.238,62.0222 223.5,63.5C 221.517,63.1568 220.183,63.8235 219.5,65.5C 218.842,66.3984 218.176,67.3984 217.5,68.5C 216.948,66.9974 216.948,65.3307 217.5,63.5C 220.506,61.992 222.673,59.6587 224,56.5C 226.093,57.2461 228.093,57.5795 230,57.5C 232.575,54.7698 235.741,53.1031 239.5,52.5C 239.351,51.448 239.517,50.448 240,49.5C 241.351,51.019 242.851,52.3523 244.5,53.5C 245.833,51.8333 247.167,50.1667 248.5,48.5C 248.291,47.914 247.957,47.414 247.5,47C 248.949,45.8978 250.282,44.7311 251.5,43.5 Z"/></g>
<g><path style="opacity:1" fill="#b6b7b6" d="M 77.5,56.5 C 71.3316,62.1687 66.9982,69.002 64.5,77C 69.5824,77.2186 74.5824,77.7186 79.5,78.5C 79.5,79.1667 79.1667,79.5 78.5,79.5C 76.9582,78.6993 75.2915,78.366 73.5,78.5C 68.8333,78.5 64.1667,78.5 59.5,78.5C 58.834,81.3583 58.1674,84.3583 57.5,87.5C 56.4999,81.9919 53.1665,79.3252 47.5,79.5C 47.7989,77.396 47.4656,75.396 46.5,73.5C 44.7295,72.9646 44.3961,72.1313 45.5,71C 43.8866,68.7724 43.22,66.2724 43.5,63.5C 44.8333,63.5 46.1667,63.5 47.5,63.5C 47.5,59.8333 47.5,56.1667 47.5,52.5C 55.5069,52.3336 63.5069,52.5003 71.5,53C 73.4319,54.4585 75.4319,55.6252 77.5,56.5 Z"/></g>
<g><path style="opacity:1" fill="#ccccc4" d="M 153.5,50.5 C 153.833,50.5 154.167,50.5 154.5,50.5C 155.167,50.5 155.833,50.5 156.5,50.5C 156.5,50.8333 156.5,51.1667 156.5,51.5C 154.528,60.4401 153.861,69.7734 154.5,79.5C 154.33,80.8221 154.663,81.9887 155.5,83C 151.49,83.5013 147.49,84.0013 143.5,84.5C 142.708,82.7428 141.375,81.4095 139.5,80.5C 141.631,79.8313 143.631,79.1646 145.5,78.5C 146.496,78.5858 147.329,78.2524 148,77.5C 148.499,72.8452 148.666,68.1785 148.5,63.5C 145.5,63.5 142.5,63.5 139.5,63.5C 137.667,65.8315 136.334,68.4982 135.5,71.5C 134.583,72.1272 133.583,72.4606 132.5,72.5C 129.312,70.1775 125.979,67.8442 122.5,65.5C 121.264,66.2458 119.93,66.5792 118.5,66.5C 119.739,65.788 120.239,64.788 120,63.5C 118.686,64.3128 117.519,65.3128 116.5,66.5C 116.167,65.8333 115.833,65.1667 115.5,64.5C 113.866,64.968 112.7,65.968 112,67.5C 110.599,65.8078 108.766,65.1412 106.5,65.5C 105.957,65.44 105.624,65.1067 105.5,64.5C 107.396,63.5344 109.396,63.2011 111.5,63.5C 111.5,60.1667 111.5,56.8333 111.5,53.5C 114.598,53.4125 114.932,53.9125 112.5,55C 114.618,55.6353 116.618,56.4686 118.5,57.5C 121.443,55.8937 124.109,53.8937 126.5,51.5C 127.844,53.0348 129.511,54.3681 131.5,55.5C 133.446,53.913 134.946,54.2464 136,56.5C 138.734,55.6383 138.901,54.805 136.5,54C 140.157,53.9486 143.823,54.282 147.5,55C 146.167,55.3333 144.833,55.6667 143.5,56C 146.688,57.3158 150.022,57.8158 153.5,57.5C 153.5,55.1667 153.5,52.8333 153.5,50.5 Z"/></g>
<g><path style="opacity:1" fill="#bfc0ba" d="M 118.5,66.5 C 118.5,66.8333 118.5,67.1667 118.5,67.5C 118.672,68.4916 118.338,69.1583 117.5,69.5C 116.849,68.9094 116.182,68.2427 115.5,67.5C 109.516,68.1037 106.183,71.437 105.5,77.5C 107.638,77.297 109.305,76.297 110.5,74.5C 111.452,76.0453 111.785,77.712 111.5,79.5C 104.52,77.9533 101.52,80.62 102.5,87.5C 101.71,86.3915 101.21,85.0581 101,83.5C 100.346,86.0076 99.179,88.1742 97.5,90C 99.8912,90.6914 99.8912,91.6914 97.5,93C 100.487,95.7849 101.821,99.2849 101.5,103.5C 104.553,104.713 106.887,106.88 108.5,110C 110.137,110.601 111.803,111.101 113.5,111.5C 115.801,110.604 118.134,110.438 120.5,111C 121.337,112.011 121.67,113.178 121.5,114.5C 122.507,116.522 124.174,117.855 126.5,118.5C 127.11,119.391 127.443,120.391 127.5,121.5C 127.5,123.5 127.5,125.5 127.5,127.5C 124.475,127.769 121.808,126.936 119.5,125C 120.624,124.751 121.624,124.251 122.5,123.5C 118.878,122.675 115.211,122.175 111.5,122C 114.833,121.667 118.167,121.333 121.5,121C 118.238,120.229 115.238,118.896 112.5,117C 110.245,114.262 108.245,111.428 106.5,108.5C 105.209,108.737 104.209,108.404 103.5,107.5C 99.6281,106.496 98.1281,104.163 99,100.5C 97.9887,99.6634 96.8221,99.33 95.5,99.5C 95.5,92.8333 95.5,86.1667 95.5,79.5C 97.1667,79.5 98.8333,79.5 100.5,79.5C 100.5,76.8333 100.5,74.1667 100.5,71.5C 101.833,71.5 103.167,71.5 104.5,71.5C 104.253,69.1417 104.919,67.1417 106.5,65.5C 108.766,65.1412 110.599,65.8078 112,67.5C 112.7,65.968 113.866,64.968 115.5,64.5C 115.833,65.1667 116.167,65.8333 116.5,66.5C 117.519,65.3128 118.686,64.3128 120,63.5C 120.239,64.788 119.739,65.788 118.5,66.5 Z"/></g>
<g><path style="opacity:1" fill="#cbbbb2" d="M 192.5,24.5 C 192.5,28.5 192.5,32.5 192.5,36.5C 192.5,41.8333 192.5,47.1667 192.5,52.5C 192.369,58.2213 192.869,63.888 194,69.5C 194.36,67.3921 195.027,65.3921 196,63.5C 196.97,66.4436 197.804,69.4436 198.5,72.5C 199.251,71.624 199.751,70.624 200,69.5C 201.996,74.5557 203.662,74.5557 205,69.5C 205.667,72.1667 206.333,72.1667 207,69.5C 207.833,70.5 208.667,71.5 209.5,72.5C 210.182,71.7573 210.849,71.0906 211.5,70.5C 212.619,72.4839 212.286,74.3172 210.5,76C 210.759,77.2613 211.426,78.2613 212.5,79C 215.482,79.498 218.482,79.6646 221.5,79.5C 221.5,77.8333 221.5,76.1667 221.5,74.5C 222.404,75.209 222.737,76.209 222.5,77.5C 223.5,77.5 224.5,77.5 225.5,77.5C 225.612,72.407 226.445,72.407 228,77.5C 229.444,75.8446 231.278,75.178 233.5,75.5C 233.5,74.1667 233.5,72.8333 233.5,71.5C 234.75,68.994 235.416,66.3274 235.5,63.5C 240.833,63.5 246.167,63.5 251.5,63.5C 251.665,66.8499 251.498,70.1832 251,73.5C 250.237,70.9365 249.737,70.9365 249.5,73.5C 250.651,75.3254 251.318,77.3254 251.5,79.5C 250.167,79.5 248.833,79.5 247.5,79.5C 236.819,80.5083 226.152,81.5083 215.5,82.5C 211.464,80.0947 207.297,77.7613 203,75.5C 201.934,78.9916 199.767,79.9916 196.5,78.5C 195.045,76.7801 194.212,74.7801 194,72.5C 193.502,75.4816 193.335,78.4816 193.5,81.5C 193.706,84.4951 193.04,87.1617 191.5,89.5C 191.5,78.1667 191.5,66.8333 191.5,55.5C 191.5,45.8333 191.5,36.1667 191.5,26.5C 191.328,25.5084 191.662,24.8417 192.5,24.5 Z"/></g>
<g><path style="opacity:1" fill="#141413" d="M 139.5,63.5 C 142.5,63.5 145.5,63.5 148.5,63.5C 148.666,68.1785 148.499,72.8452 148,77.5C 147.329,78.2524 146.496,78.5858 145.5,78.5C 143.5,78.5 141.5,78.5 139.5,78.5C 139.5,73.5 139.5,68.5 139.5,63.5 Z"/></g>
<g><path style="opacity:1" fill="#bdbdbd" d="M 100.5,71.5 C 100.5,74.1667 100.5,76.8333 100.5,79.5C 98.8333,79.5 97.1667,79.5 95.5,79.5C 95.5,86.1667 95.5,92.8333 95.5,99.5C 96.8221,99.33 97.9887,99.6634 99,100.5C 98.1281,104.163 99.6281,106.496 103.5,107.5C 101.856,107.286 100.356,107.62 99,108.5C 97.7978,110.553 97.4644,112.553 98,114.5C 97.0347,112.74 95.868,112.406 94.5,113.5C 95.4974,115.811 95.9974,118.144 96,120.5C 94.103,118.984 91.9363,118.317 89.5,118.5C 86.3276,114.159 83.6609,109.492 81.5,104.5C 79.6849,97.316 78.6849,89.9827 78.5,82.5C 78.5,81.5 78.5,80.5 78.5,79.5C 79.1667,79.5 79.5,79.1667 79.5,78.5C 81.3974,76.7312 82.564,74.3979 83,71.5C 84.5095,70.9103 86.0095,70.2436 87.5,69.5C 87.0688,68.7065 86.7355,67.8732 86.5,67C 86.8375,64.3911 87.8375,62.2244 89.5,60.5C 91.0109,59.4975 92.6776,58.8308 94.5,58.5C 94.5198,60.143 93.8532,61.4763 92.5,62.5C 92.4663,68.1244 95.1329,71.1244 100.5,71.5 Z"/></g>
<g><path style="opacity:1" fill="#dfdad3" d="M 156.5,51.5 C 159.127,52.0916 161.794,52.4249 164.5,52.5C 164.5,54.1667 164.5,55.8333 164.5,57.5C 164.998,62.1522 165.331,66.8189 165.5,71.5C 165.5,74.1667 165.5,76.8333 165.5,79.5C 165.664,82.1873 165.497,84.854 165,87.5C 164.992,79.356 163.992,71.356 162,63.5C 160.788,67.4267 159.788,71.4267 159,75.5C 158.124,77.6355 156.624,78.9688 154.5,79.5C 153.861,69.7734 154.528,60.4401 156.5,51.5 Z"/></g>
<g><path style="opacity:1" fill="#a3a2a2" d="M 132.5,72.5 C 133.625,74.1288 134.959,75.6288 136.5,77C 135.213,80.1247 135.213,83.2913 136.5,86.5C 137.183,86.8627 137.85,87.1961 138.5,87.5C 138.5,87.8333 138.5,88.1667 138.5,88.5C 136.443,89.9913 134.443,91.6579 132.5,93.5C 132.868,95.5065 132.368,97.5065 131,99.5C 130.925,97.065 130.092,96.3984 128.5,97.5C 132.871,85.7448 129.538,76.9115 118.5,71C 120.927,69.4455 120.927,68.2789 118.5,67.5C 118.5,67.1667 118.5,66.8333 118.5,66.5C 119.93,66.5792 121.264,66.2458 122.5,65.5C 125.979,67.8442 129.312,70.1775 132.5,72.5 Z"/></g>
<g><path style="opacity:1" fill="#b2a7a2" d="M 215.5,63.5 C 216.167,63.5 216.833,63.5 217.5,63.5C 216.948,65.3307 216.948,66.9974 217.5,68.5C 218.176,67.3984 218.842,66.3984 219.5,65.5C 220.417,68.4173 221.084,71.4173 221.5,74.5C 221.5,76.1667 221.5,77.8333 221.5,79.5C 218.482,79.6646 215.482,79.498 212.5,79C 211.426,78.2613 210.759,77.2613 210.5,76C 212.286,74.3172 212.619,72.4839 211.5,70.5C 212.114,68.7175 213.28,67.3841 215,66.5C 215.483,65.552 215.649,64.552 215.5,63.5 Z"/></g>
<g><path style="opacity:1" fill="#ddd1ca" d="M 233.5,71.5 C 233.5,72.8333 233.5,74.1667 233.5,75.5C 231.278,75.178 229.444,75.8446 228,77.5C 226.445,72.407 225.612,72.407 225.5,77.5C 224.5,77.5 223.5,77.5 222.5,77.5C 222.737,76.209 222.404,75.209 221.5,74.5C 221.084,71.4173 220.417,68.4173 219.5,65.5C 220.183,63.8235 221.517,63.1568 223.5,63.5C 223.238,62.0222 223.571,60.6888 224.5,59.5C 226.071,60.3094 227.738,60.6427 229.5,60.5C 228.671,63.4686 228.505,66.4686 229,69.5C 230.11,71.0368 231.61,71.7035 233.5,71.5 Z"/></g>
<g><path style="opacity:1" fill="#424040" d="M 118.5,67.5 C 120.927,68.2789 120.927,69.4455 118.5,71C 129.538,76.9115 132.871,85.7448 128.5,97.5C 128.5,98.1667 128.167,98.5 127.5,98.5C 126.709,96.6907 126.709,94.6907 127.5,92.5C 129.377,84.899 127.044,78.7323 120.5,74C 119.207,73.51 117.873,73.3433 116.5,73.5C 116.389,72.8826 116.056,72.3826 115.5,72C 116.756,71.5831 117.423,70.7498 117.5,69.5C 118.338,69.1583 118.672,68.4916 118.5,67.5 Z"/></g>
<g><path style="opacity:1" fill="#838685" d="M 73.5,78.5 C 75.2915,78.366 76.9582,78.6993 78.5,79.5C 78.5,80.5 78.5,81.5 78.5,82.5C 78.1402,94.6612 77.9735,106.994 78,119.5C 77.6667,120.833 77.3333,122.167 77,123.5C 76.3666,110.498 75.6999,97.4983 75,84.5C 74.8279,91.0133 74.3279,97.3466 73.5,103.5C 73.5,95.1667 73.5,86.8333 73.5,78.5 Z"/></g>
<g><path style="opacity:1" fill="#b0b0b0" d="M 117.5,69.5 C 117.423,70.7498 116.756,71.5831 115.5,72C 116.056,72.3826 116.389,72.8826 116.5,73.5C 120.238,78.2024 122.738,83.5357 124,89.5C 124.333,88.5 124.667,87.5 125,86.5C 125.478,89.2049 126.311,91.2049 127.5,92.5C 126.709,94.6907 126.709,96.6907 127.5,98.5C 127.586,99.4959 127.252,100.329 126.5,101C 128.728,101.82 130.728,101.487 132.5,100C 135.167,99.3333 137.833,99.3333 140.5,100C 142.727,102.292 145.06,104.459 147.5,106.5C 148.246,107.736 148.579,109.07 148.5,110.5C 144.685,108.577 141.019,108.577 137.5,110.5C 136.151,110.154 134.817,109.821 133.5,109.5C 132.486,110.674 131.153,111.34 129.5,111.5C 126.412,109.24 123.745,106.407 121.5,103C 120.833,102.333 120.167,102.333 119.5,103C 120.381,103.708 121.047,104.542 121.5,105.5C 114.57,107.207 108.903,105.207 104.5,99.5C 103.543,96.1648 102.209,92.9981 100.5,90C 101.056,88.9889 101.722,88.1556 102.5,87.5C 101.52,80.62 104.52,77.9533 111.5,79.5C 111.785,77.712 111.452,76.0453 110.5,74.5C 109.305,76.297 107.638,77.297 105.5,77.5C 106.183,71.437 109.516,68.1037 115.5,67.5C 116.182,68.2427 116.849,68.9094 117.5,69.5 Z"/></g>
<g><path style="opacity:1" fill="#cfcac1" d="M 165.5,79.5 C 166.5,79.5 167.5,79.5 168.5,79.5C 168.657,80.8734 168.49,82.2068 168,83.5C 166.893,82.2881 166.393,82.6214 166.5,84.5C 166.5,93.8333 166.5,103.167 166.5,112.5C 168.167,112.5 169.833,112.5 171.5,112.5C 169.167,113.833 166.833,113.833 164.5,112.5C 160.046,107.929 158.379,102.263 159.5,95.5C 157.027,95.2009 154.86,94.2009 153,92.5C 150.422,95.5162 147.255,96.1829 143.5,94.5C 145.833,93.8333 148.167,93.1667 150.5,92.5C 147.241,91.0203 143.908,90.0203 140.5,89.5C 139.833,89.1667 139.167,88.8333 138.5,88.5C 138.5,88.1667 138.5,87.8333 138.5,87.5C 139.401,85.2729 141.067,84.2729 143.5,84.5C 147.49,84.0013 151.49,83.5013 155.5,83C 154.663,81.9887 154.33,80.8221 154.5,79.5C 156.624,78.9688 158.124,77.6355 159,75.5C 159.788,71.4267 160.788,67.4267 162,63.5C 163.992,71.356 164.992,79.356 165,87.5C 165.497,84.854 165.664,82.1873 165.5,79.5 Z"/></g>
<g><path style="opacity:1" fill="#0b0b0b" d="M 271.5,-0.5 C 272.5,-0.5 273.5,-0.5 274.5,-0.5C 274.5,60.5 274.5,121.5 274.5,182.5C 269.833,182.5 265.167,182.5 260.5,182.5C 260.5,165.167 260.5,147.833 260.5,130.5C 261.331,115.339 261.831,100.005 262,84.5C 262.147,89.9608 262.98,95.2942 264.5,100.5C 267.135,99.5265 269.135,97.8598 270.5,95.5C 271.5,63.5069 271.833,31.5069 271.5,-0.5 Z"/></g>
<g><path style="opacity:1" fill="#b4b7b1" d="M 139.5,63.5 C 139.5,68.5 139.5,73.5 139.5,78.5C 141.5,78.5 143.5,78.5 145.5,78.5C 143.631,79.1646 141.631,79.8313 139.5,80.5C 141.375,81.4095 142.708,82.7428 143.5,84.5C 141.067,84.2729 139.401,85.2729 138.5,87.5C 137.85,87.1961 137.183,86.8627 136.5,86.5C 135.213,83.2913 135.213,80.1247 136.5,77C 134.959,75.6288 133.625,74.1288 132.5,72.5C 133.583,72.4606 134.583,72.1272 135.5,71.5C 136.334,68.4982 137.667,65.8315 139.5,63.5 Z"/></g>
<g><path style="opacity:1" fill="#a4a5a4" d="M 191.5,55.5 C 191.5,66.8333 191.5,78.1667 191.5,89.5C 190.602,90.1577 189.602,90.8243 188.5,91.5C 190.495,92.2945 192.495,92.9612 194.5,93.5C 194.5,94.8333 194.5,96.1667 194.5,97.5C 194.5,103.833 194.5,110.167 194.5,116.5C 196.167,116.5 197.833,116.5 199.5,116.5C 200.75,116.423 201.583,115.756 202,114.5C 202.497,111.854 202.664,109.187 202.5,106.5C 205.5,106.5 208.5,106.5 211.5,106.5C 211.281,105.325 211.614,104.325 212.5,103.5C 213.663,123.467 214.497,123.467 215,103.5C 215.499,108.823 215.666,114.156 215.5,119.5C 205.281,118.801 195.281,117.468 185.5,115.5C 185.5,114.5 185.5,113.5 185.5,112.5C 183.265,112.795 181.265,112.461 179.5,111.5C 177.135,107.859 174.968,107.859 173,111.5C 172.667,108.833 172.333,106.167 172,103.5C 171.502,106.482 171.335,109.482 171.5,112.5C 169.833,112.5 168.167,112.5 166.5,112.5C 166.5,103.167 166.5,93.8333 166.5,84.5C 168.5,84.1667 170.5,83.8333 172.5,83.5C 172.238,84.9778 172.571,86.3112 173.5,87.5C 174.598,86.3845 175.765,86.3845 177,87.5C 178.688,85.4806 180.688,83.814 183,82.5C 183.121,84.7271 183.954,86.5604 185.5,88C 183.044,90.159 183.71,90.9923 187.5,90.5C 189.229,85.697 190.229,80.697 190.5,75.5C 187.726,67.1499 187.06,58.6499 188.5,50C 189.017,43.1104 187.517,42.2771 184,47.5C 183.51,46.2068 183.343,44.8734 183.5,43.5C 177.636,42.5999 172.636,44.2666 168.5,48.5C 167.695,57.1188 167.195,65.7854 167,74.5C 166.768,73.2625 166.268,72.2625 165.5,71.5C 165.331,66.8189 164.998,62.1522 164.5,57.5C 165.622,55.7116 165.789,53.7116 165,51.5C 164.25,50.8742 163.416,50.3742 162.5,50C 166.246,47.1078 170.246,44.4411 174.5,42C 175.337,40.9887 175.67,39.8221 175.5,38.5C 178.579,38.7399 181.579,38.4066 184.5,37.5C 188.055,39.6366 190.055,42.8033 190.5,47C 189.049,50.1115 189.382,52.9448 191.5,55.5 Z"/></g>
<g><path style="opacity:1" fill="#eee2ca" d="M 215.5,82.5 C 218.823,83.3618 222.323,84.0285 226,84.5C 227.365,84.1557 228.532,83.4891 229.5,82.5C 232.965,85.1217 236.465,85.1217 240,82.5C 241.799,82.7205 243.632,83.0539 245.5,83.5C 247.111,82.6798 247.778,81.3464 247.5,79.5C 248.833,79.5 250.167,79.5 251.5,79.5C 251.5,80.5 251.5,81.5 251.5,82.5C 251.823,86.226 251.489,89.8927 250.5,93.5C 248.992,90.5824 246.825,89.9157 244,91.5C 243.689,90.2575 244.189,89.2575 245.5,88.5C 244.609,87.4104 243.609,87.4104 242.5,88.5C 241.719,89.7287 241.219,91.062 241,92.5C 240.517,91.552 240.351,90.552 240.5,89.5C 236.855,90.7713 233.522,90.7713 230.5,89.5C 229.614,88.675 229.281,87.675 229.5,86.5C 227.857,86.4802 226.524,87.1468 225.5,88.5C 223.031,86.9934 220.865,87.3268 219,89.5C 215.67,86.9891 211.837,85.9891 207.5,86.5C 206.883,86.3893 206.383,86.056 206,85.5C 206,86.8333 206,88.1667 206,89.5C 204,88.8333 202,88.1667 200,87.5C 198.535,89.915 196.368,90.915 193.5,90.5C 193.5,89.5 193.5,88.5 193.5,87.5C 195.167,87.5 196.833,87.5 198.5,87.5C 198.351,86.448 198.517,85.448 199,84.5C 201.864,88.7322 202.864,88.3989 202,83.5C 199.435,81.8207 196.602,81.154 193.5,81.5C 193.335,78.4816 193.502,75.4816 194,72.5C 194.212,74.7801 195.045,76.7801 196.5,78.5C 199.767,79.9916 201.934,78.9916 203,75.5C 207.297,77.7613 211.464,80.0947 215.5,82.5 Z"/></g>
<g><path style="opacity:1" fill="#e8cfba" d="M 247.5,79.5 C 247.778,81.3464 247.111,82.6798 245.5,83.5C 243.632,83.0539 241.799,82.7205 240,82.5C 236.465,85.1217 232.965,85.1217 229.5,82.5C 228.532,83.4891 227.365,84.1557 226,84.5C 222.323,84.0285 218.823,83.3618 215.5,82.5C 226.152,81.5083 236.819,80.5083 247.5,79.5 Z"/></g>
<g><path style="opacity:1" fill="#969795" d="M 116.5,73.5 C 117.873,73.3433 119.207,73.51 120.5,74C 127.044,78.7323 129.377,84.899 127.5,92.5C 126.311,91.2049 125.478,89.2049 125,86.5C 124.667,87.5 124.333,88.5 124,89.5C 122.738,83.5357 120.238,78.2024 116.5,73.5 Z"/></g>
<g><path style="opacity:1" fill="#99a19f" d="M 27.5,47.5 C 24.5782,49.594 22.0782,52.2607 20,55.5C 18.6367,63.4295 18.1367,71.4295 18.5,79.5C 17.1667,79.5 15.8333,79.5 14.5,79.5C 14.7683,82.1194 14.435,84.6194 13.5,87C 14.2555,88.3803 14.9222,88.547 15.5,87.5C 16.7479,88.3339 17.4146,89.6672 17.5,91.5C 17.1667,92.8333 16.8333,94.1667 16.5,95.5C 15.2322,94.5721 13.8989,94.4054 12.5,95C 13.6667,95.5 14.5,96.3333 15,97.5C 15.4995,103.491 15.6662,109.491 15.5,115.5C 21.0934,115.807 26.5934,115.473 32,114.5C 35.497,116.079 39.1637,117.079 43,117.5C 47.0911,116.268 51.2578,115.601 55.5,115.5C 55.2627,114.209 55.596,113.209 56.5,112.5C 56.281,113.675 56.6143,114.675 57.5,115.5C 58.5063,115.062 58.5063,114.396 57.5,113.5C 59.0863,111.827 59.7529,109.827 59.5,107.5C 59.5,106.167 59.5,104.833 59.5,103.5C 60.4849,107.634 60.8182,111.968 60.5,116.5C 60.5,117.5 60.5,118.5 60.5,119.5C 45.1844,120.704 29.8511,121.704 14.5,122.5C 13.5,122.5 12.5,122.5 11.5,122.5C 10.5956,113.265 10.5956,104.098 11.5,95C 10.4092,93.4499 9.07583,92.2832 7.5,91.5C 7.97557,87.9783 8.3089,84.3116 8.5,80.5C 7.58943,71.2076 6.92277,61.8743 6.5,52.5C 8.70117,52.1416 10.0345,50.8083 10.5,48.5C 16.1278,47.5046 21.7945,47.1712 27.5,47.5 Z"/></g>
<g><path style="opacity:1" fill="#5d6562" d="M 59.5,78.5 C 64.1667,78.5 68.8333,78.5 73.5,78.5C 73.5,86.8333 73.5,95.1667 73.5,103.5C 73.6527,109.845 73.986,116.178 74.5,122.5C 73.6909,120.708 73.1909,118.708 73,116.5C 69.9999,116.84 66.9999,116.173 64,114.5C 63.2904,115.973 62.1238,116.64 60.5,116.5C 60.8182,111.968 60.4849,107.634 59.5,103.5C 59.5,95.1667 59.5,86.8333 59.5,78.5 Z"/></g>
<g><path style="opacity:1" fill="#ac5b32" d="M 140.5,89.5 C 140.33,88.1779 140.663,87.0113 141.5,86C 145.821,85.501 150.154,85.3343 154.5,85.5C 154.5,86.8333 154.5,88.1667 154.5,89.5C 149.833,89.5 145.167,89.5 140.5,89.5 Z"/></g>
<g><path style="opacity:1" fill="#cbcbbe" d="M 193.5,81.5 C 196.602,81.154 199.435,81.8207 202,83.5C 202.864,88.3989 201.864,88.7322 199,84.5C 198.517,85.448 198.351,86.448 198.5,87.5C 196.833,87.5 195.167,87.5 193.5,87.5C 193.5,88.5 193.5,89.5 193.5,90.5C 196.368,90.915 198.535,89.915 200,87.5C 202,88.1667 204,88.8333 206,89.5C 206,88.1667 206,86.8333 206,85.5C 206.383,86.056 206.883,86.3893 207.5,86.5C 207.5,88.5 207.5,90.5 207.5,92.5C 210.85,92.335 214.183,92.5017 217.5,93C 216.584,93.2784 215.918,93.7784 215.5,94.5C 208.515,93.9115 201.515,93.5782 194.5,93.5C 192.495,92.9612 190.495,92.2945 188.5,91.5C 189.602,90.8243 190.602,90.1577 191.5,89.5C 193.04,87.1617 193.706,84.4951 193.5,81.5 Z"/></g>
<g><path style="opacity:1" fill="#c2c1bc" d="M 251.5,82.5 C 252.084,86.8627 253.084,91.1961 254.5,95.5C 252.616,96.6752 250.449,97.3418 248,97.5C 242.85,96.8682 237.683,96.5349 232.5,96.5C 227.203,95.7255 221.87,95.3921 216.5,95.5C 216.5,94.8333 216.167,94.5 215.5,94.5C 215.918,93.7784 216.584,93.2784 217.5,93C 214.183,92.5017 210.85,92.335 207.5,92.5C 207.5,90.5 207.5,88.5 207.5,86.5C 211.837,85.9891 215.67,86.9891 219,89.5C 220.865,87.3268 223.031,86.9934 225.5,88.5C 226.524,87.1468 227.857,86.4802 229.5,86.5C 229.281,87.675 229.614,88.675 230.5,89.5C 233.522,90.7713 236.855,90.7713 240.5,89.5C 240.351,90.552 240.517,91.552 241,92.5C 241.219,91.062 241.719,89.7287 242.5,88.5C 243.609,87.4104 244.609,87.4104 245.5,88.5C 244.189,89.2575 243.689,90.2575 244,91.5C 246.825,89.9157 248.992,90.5824 250.5,93.5C 251.489,89.8927 251.823,86.226 251.5,82.5 Z"/></g>
<g><path style="opacity:1" fill="#cac8c4" d="M 138.5,88.5 C 139.167,88.8333 139.833,89.1667 140.5,89.5C 143.908,90.0203 147.241,91.0203 150.5,92.5C 148.167,93.1667 145.833,93.8333 143.5,94.5C 147.255,96.1829 150.422,95.5162 153,92.5C 154.86,94.2009 157.027,95.2009 159.5,95.5C 158.379,102.263 160.046,107.929 164.5,112.5C 160.158,112.261 155.824,111.927 151.5,111.5C 150.791,110.596 149.791,110.263 148.5,110.5C 148.579,109.07 148.246,107.736 147.5,106.5C 145.06,104.459 142.727,102.292 140.5,100C 137.833,99.3333 135.167,99.3333 132.5,100C 130.728,101.487 128.728,101.82 126.5,101C 127.252,100.329 127.586,99.4959 127.5,98.5C 128.167,98.5 128.5,98.1667 128.5,97.5C 130.092,96.3984 130.925,97.065 131,99.5C 132.368,97.5065 132.868,95.5065 132.5,93.5C 134.443,91.6579 136.443,89.9913 138.5,88.5 Z"/></g>
<g><path style="opacity:1" fill="#4c4c4c" d="M 194.5,93.5 C 201.515,93.5782 208.515,93.9115 215.5,94.5C 216.167,94.5 216.5,94.8333 216.5,95.5C 215.833,95.5 215.5,95.8333 215.5,96.5C 210.213,97.3424 204.88,97.6757 199.5,97.5C 199.719,98.675 199.386,99.675 198.5,100.5C 197.431,99.0905 196.097,98.0905 194.5,97.5C 194.5,96.1667 194.5,94.8333 194.5,93.5 Z"/></g>
<g><path style="opacity:1" fill="#2f3331" d="M 216.5,95.5 C 221.87,95.3921 227.203,95.7255 232.5,96.5C 230.885,104.082 229.885,112.082 229.5,120.5C 229.167,120.5 228.833,120.5 228.5,120.5C 229.302,113.196 229.635,105.862 229.5,98.5C 224.647,98.1873 219.98,97.5206 215.5,96.5C 215.5,95.8333 215.833,95.5 216.5,95.5 Z"/></g>
<g><path style="opacity:1" fill="#454545" d="M 133.5,109.5 C 132.244,109.539 131.244,109.039 130.5,108C 131.38,106.644 131.714,105.144 131.5,103.5C 129.473,103.662 127.473,103.495 125.5,103C 128.5,102.333 131.5,102.333 134.5,103C 133.167,104 133.167,105 134.5,106C 132.627,106.953 132.294,108.12 133.5,109.5 Z"/></g>
<g><path style="opacity:1" fill="#606161" d="M 254.5,95.5 C 255.598,96.397 255.598,97.2303 254.5,98C 252.19,98.4966 249.857,98.6633 247.5,98.5C 247.5,100.167 247.5,101.833 247.5,103.5C 242.195,102.806 236.862,102.472 231.5,102.5C 231.5,108.5 231.5,114.5 231.5,120.5C 230.833,120.5 230.167,120.5 229.5,120.5C 229.885,112.082 230.885,104.082 232.5,96.5C 237.683,96.5349 242.85,96.8682 248,97.5C 250.449,97.3418 252.616,96.6752 254.5,95.5 Z"/></g>
<g><path style="opacity:1" fill="#483638" d="M -0.5,103.5 C 4.83333,104.167 4.83333,104.833 -0.5,105.5C -0.5,104.833 -0.5,104.167 -0.5,103.5 Z"/></g>
<g><path style="opacity:1" fill="#909291" d="M 227.5,104.5 C 226.167,104.5 224.833,104.5 223.5,104.5C 223.167,124.5 222.833,124.5 222.5,104.5C 221.167,104.5 219.833,104.5 218.5,104.5C 218.666,109.511 218.499,114.511 218,119.5C 217.667,114.167 217.333,108.833 217,103.5C 216.827,109.016 216.327,114.349 215.5,119.5C 215.666,114.156 215.499,108.823 215,103.5C 214.497,123.467 213.663,123.467 212.5,103.5C 211.614,104.325 211.281,105.325 211.5,106.5C 208.5,106.5 205.5,106.5 202.5,106.5C 202.664,109.187 202.497,111.854 202,114.5C 201.583,115.756 200.75,116.423 199.5,116.5C 199.67,115.178 199.337,114.011 198.5,113C 200.121,110.834 200.955,108.334 201,105.5C 202.049,103.893 203.549,103.227 205.5,103.5C 205.5,102.5 205.5,101.5 205.5,100.5C 210.179,100.334 214.845,100.501 219.5,101C 222.666,101.322 225.333,102.489 227.5,104.5 Z"/></g>
<g><path style="opacity:1" fill="#777978" d="M 215.5,96.5 C 219.98,97.5206 224.647,98.1873 229.5,98.5C 229.635,105.862 229.302,113.196 228.5,120.5C 227.512,115.36 227.179,110.026 227.5,104.5C 225.333,102.489 222.666,101.322 219.5,101C 214.845,100.501 210.179,100.334 205.5,100.5C 205.5,101.5 205.5,102.5 205.5,103.5C 203.549,103.227 202.049,103.893 201,105.5C 200.955,108.334 200.121,110.834 198.5,113C 199.337,114.011 199.67,115.178 199.5,116.5C 197.833,116.5 196.167,116.5 194.5,116.5C 194.5,110.167 194.5,103.833 194.5,97.5C 196.097,98.0905 197.431,99.0905 198.5,100.5C 199.386,99.675 199.719,98.675 199.5,97.5C 204.88,97.6757 210.213,97.3424 215.5,96.5 Z"/></g>
<g><path style="opacity:1" fill="#9ba5a2" d="M 56.5,112.5 C 55.596,113.209 55.2627,114.209 55.5,115.5C 51.2578,115.601 47.0911,116.268 43,117.5C 39.1637,117.079 35.497,116.079 32,114.5C 26.5934,115.473 21.0934,115.807 15.5,115.5C 15.6662,109.491 15.4995,103.491 15,97.5C 14.5,96.3333 13.6667,95.5 12.5,95C 13.8989,94.4054 15.2322,94.5721 16.5,95.5C 16.8333,94.1667 17.1667,92.8333 17.5,91.5C 17.4146,89.6672 16.7479,88.3339 15.5,87.5C 15.3433,86.1266 15.51,84.7932 16,83.5C 20.133,87.0319 21.2997,91.3653 19.5,96.5C 20.1667,97.8333 21.1667,98.8333 22.5,99.5C 23.4287,100.689 23.762,102.022 23.5,103.5C 26.4475,103.777 29.2809,103.444 32,102.5C 34.3617,103.352 36.1951,104.852 37.5,107C 41.0386,107.187 44.2052,108.354 47,110.5C 49.456,108.679 52.2893,108.012 55.5,108.5C 55.4326,109.959 55.7659,111.292 56.5,112.5 Z"/></g>
<g><path style="opacity:1" fill="#565857" d="M 129.5,111.5 C 129.158,112.338 128.492,112.672 127.5,112.5C 122.677,112.673 120.677,110.339 121.5,105.5C 121.047,104.542 120.381,103.708 119.5,103C 120.167,102.333 120.833,102.333 121.5,103C 123.745,106.407 126.412,109.24 129.5,111.5 Z"/></g>
<g><path style="opacity:1" fill="#868786" d="M 179.5,111.5 C 177.099,112.049 174.765,112.882 172.5,114C 178.622,114.728 178.789,115.228 173,115.5C 165.035,114.612 157.869,113.279 151.5,111.5C 155.824,111.927 160.158,112.261 164.5,112.5C 166.833,113.833 169.167,113.833 171.5,112.5C 171.335,109.482 171.502,106.482 172,103.5C 172.333,106.167 172.667,108.833 173,111.5C 174.968,107.859 177.135,107.859 179.5,111.5 Z"/></g>
<g><path style="opacity:1" fill="#b7bab8" d="M 227.5,104.5 C 227.179,110.026 227.512,115.36 228.5,120.5C 227.726,121.147 226.726,121.48 225.5,121.5C 221.976,121.099 218.642,120.433 215.5,119.5C 216.327,114.349 216.827,109.016 217,103.5C 217.333,108.833 217.667,114.167 218,119.5C 218.499,114.511 218.666,109.511 218.5,104.5C 219.833,104.5 221.167,104.5 222.5,104.5C 222.833,124.5 223.167,124.5 223.5,104.5C 224.833,104.5 226.167,104.5 227.5,104.5 Z"/></g>
<g><path style="opacity:1" fill="#a0a0a0" d="M 247.5,103.5 C 247.5,107.167 247.5,110.833 247.5,114.5C 244.881,114.768 242.381,114.435 240,113.5C 239.51,114.793 239.343,116.127 239.5,117.5C 242.206,117.425 244.873,117.092 247.5,116.5C 247.36,118.124 248.027,119.29 249.5,120C 248.663,121.011 248.33,122.178 248.5,123.5C 246.194,123.993 243.861,124.326 241.5,124.5C 238.423,123.144 235.09,122.311 231.5,122C 234.097,121.221 234.097,120.721 231.5,120.5C 231.5,114.5 231.5,108.5 231.5,102.5C 236.862,102.472 242.195,102.806 247.5,103.5 Z"/></g>
<g><path style="opacity:1" fill="#0b0d0c" d="M -0.5,112.5 C 1.16667,112.5 2.83333,112.5 4.5,112.5C 5.16667,116.5 3.5,118.167 -0.5,117.5C -0.5,115.833 -0.5,114.167 -0.5,112.5 Z"/></g>
<g><path style="opacity:1" fill="#878787" d="M 148.5,110.5 C 147.167,112.167 145.833,113.833 144.5,115.5C 138.614,115.02 132.948,114.02 127.5,112.5C 128.492,112.672 129.158,112.338 129.5,111.5C 131.153,111.34 132.486,110.674 133.5,109.5C 134.817,109.821 136.151,110.154 137.5,110.5C 141.019,108.577 144.685,108.577 148.5,110.5 Z"/></g>
<g><path style="opacity:1" fill="#8c8f8e" d="M 7.5,91.5 C 9.07583,92.2832 10.4092,93.4499 11.5,95C 10.5956,104.098 10.5956,113.265 11.5,122.5C 12.5,122.5 13.5,122.5 14.5,122.5C 13.4324,123.434 12.099,123.768 10.5,123.5C 9.20532,127.267 8.53866,131.267 8.5,135.5C 6.83333,135.5 5.16667,135.5 3.5,135.5C 3.5,131.833 3.5,128.167 3.5,124.5C 5.09903,124.768 6.43236,124.434 7.5,123.5C 9.91366,122.594 10.747,120.928 10,118.5C 9.5,119 9,119.5 8.5,120C 5.51838,120.498 2.51838,120.665 -0.5,120.5C -0.5,119.5 -0.5,118.5 -0.5,117.5C 3.5,118.167 5.16667,116.5 4.5,112.5C 2.83333,112.5 1.16667,112.5 -0.5,112.5C -0.5,110.167 -0.5,107.833 -0.5,105.5C 4.83333,104.833 4.83333,104.167 -0.5,103.5C -0.5,102.5 -0.5,101.5 -0.5,100.5C 1.14387,100.286 2.64387,100.62 4,101.5C 4.38761,104.849 4.22094,108.183 3.5,111.5C 5.4835,111.383 7.15017,112.05 8.5,113.5C 9.83333,106.833 9.83333,100.167 8.5,93.5C 7.57451,94.6405 6.74117,94.6405 6,93.5C 5.80779,91.4233 5.30779,89.4233 4.5,87.5C 3.17522,86.2094 1.84189,84.8761 0.5,83.5C 0.833333,83.1667 1.16667,82.8333 1.5,82.5C 5.24402,84.3174 7.24402,87.3174 7.5,91.5 Z"/></g>
<g><path style="opacity:1" fill="#dedfdd" d="M 102.5,87.5 C 101.722,88.1556 101.056,88.9889 100.5,90C 102.209,92.9981 103.543,96.1648 104.5,99.5C 108.903,105.207 114.57,107.207 121.5,105.5C 120.677,110.339 122.677,112.673 127.5,112.5C 132.948,114.02 138.614,115.02 144.5,115.5C 169.629,120.189 194.963,124.522 220.5,128.5C 222.343,128.592 223.009,128.259 222.5,127.5C 222.833,126.833 223.167,126.167 223.5,125.5C 224.261,126.391 225.261,127.058 226.5,127.5C 229.029,127.071 231.362,126.404 233.5,125.5C 234.5,125.5 235.5,125.5 236.5,125.5C 235.109,126.985 232.776,127.819 229.5,128C 233.633,128.994 237.8,129.828 242,130.5C 244.468,129.497 246.968,128.997 249.5,129C 246.879,129.906 247.046,130.406 250,130.5C 252.478,129.668 254.978,129.501 257.5,130C 256.584,130.278 255.918,130.778 255.5,131.5C 247.562,132.825 239.562,133.492 231.5,133.5C 221.696,131.422 211.696,129.755 201.5,128.5C 175.112,122.959 148.446,118.292 121.5,114.5C 121.67,113.178 121.337,112.011 120.5,111C 118.134,110.438 115.801,110.604 113.5,111.5C 111.803,111.101 110.137,110.601 108.5,110C 106.887,106.88 104.553,104.713 101.5,103.5C 101.821,99.2849 100.487,95.7849 97.5,93C 99.8912,91.6914 99.8912,90.6914 97.5,90C 99.179,88.1742 100.346,86.0076 101,83.5C 101.21,85.0581 101.71,86.3915 102.5,87.5 Z"/></g>
<g><path style="opacity:1" fill="#757776" d="M 185.5,115.5 C 195.281,117.468 205.281,118.801 215.5,119.5C 218.642,120.433 221.976,121.099 225.5,121.5C 226.726,121.48 227.726,121.147 228.5,120.5C 228.833,120.5 229.167,120.5 229.5,120.5C 230.167,120.5 230.833,120.5 231.5,120.5C 234.097,120.721 234.097,121.221 231.5,122C 235.09,122.311 238.423,123.144 241.5,124.5C 239.585,124.216 237.919,124.549 236.5,125.5C 235.5,125.5 234.5,125.5 233.5,125.5C 230.993,125.195 228.326,125.029 225.5,125C 229.852,124.581 230.185,123.914 226.5,123C 210.474,120.83 194.474,118.497 178.5,116C 180.81,115.503 183.143,115.337 185.5,115.5 Z"/></g>
<g><path style="opacity:1" fill="#b2b2b1" d="M 103.5,107.5 C 104.209,108.404 105.209,108.737 106.5,108.5C 108.245,111.428 110.245,114.262 112.5,117C 115.238,118.896 118.238,120.229 121.5,121C 118.167,121.333 114.833,121.667 111.5,122C 115.211,122.175 118.878,122.675 122.5,123.5C 121.624,124.251 120.624,124.751 119.5,125C 121.808,126.936 124.475,127.769 127.5,127.5C 127.5,125.5 127.5,123.5 127.5,121.5C 131.023,123.079 134.69,124.412 138.5,125.5C 139.747,127.178 141.414,128.511 143.5,129.5C 146.833,130.167 150.167,130.833 153.5,131.5C 151.833,131.833 150.167,132.167 148.5,132.5C 141.58,130.84 134.58,130.34 127.5,131C 122.901,134.954 123.567,137.121 129.5,137.5C 129.5,138.5 129.5,139.5 129.5,140.5C 132.077,140.455 134.077,141.455 135.5,143.5C 130.517,142.173 125.517,140.84 120.5,139.5C 120.443,138.391 120.11,137.391 119.5,136.5C 121.912,136.306 122.912,134.973 122.5,132.5C 109.372,132.9 98.3725,128.234 89.5,118.5C 91.9363,118.317 94.103,118.984 96,120.5C 95.9974,118.144 95.4974,115.811 94.5,113.5C 95.868,112.406 97.0347,112.74 98,114.5C 97.4644,112.553 97.7978,110.553 99,108.5C 100.356,107.62 101.856,107.286 103.5,107.5 Z"/></g>
<g><path style="opacity:1" fill="#a7a9a8" d="M 148.5,110.5 C 149.791,110.263 150.791,110.596 151.5,111.5C 157.869,113.279 165.035,114.612 173,115.5C 178.789,115.228 178.622,114.728 172.5,114C 174.765,112.882 177.099,112.049 179.5,111.5C 181.265,112.461 183.265,112.795 185.5,112.5C 185.5,113.5 185.5,114.5 185.5,115.5C 183.143,115.337 180.81,115.503 178.5,116C 194.474,118.497 210.474,120.83 226.5,123C 230.185,123.914 229.852,124.581 225.5,125C 228.326,125.029 230.993,125.195 233.5,125.5C 231.362,126.404 229.029,127.071 226.5,127.5C 225.261,127.058 224.261,126.391 223.5,125.5C 221.093,124.912 218.76,123.912 216.5,122.5C 211.457,122.252 206.457,122.752 201.5,124C 208.521,125.17 215.521,126.337 222.5,127.5C 223.009,128.259 222.343,128.592 220.5,128.5C 194.963,124.522 169.629,120.189 144.5,115.5C 145.833,113.833 147.167,112.167 148.5,110.5 Z"/></g>
<g><path style="opacity:1" fill="#a6a6a6" d="M 121.5,114.5 C 148.446,118.292 175.112,122.959 201.5,128.5C 198.843,128.83 196.176,129.163 193.5,129.5C 184.86,127.952 176.193,126.619 167.5,125.5C 157.785,122.677 147.785,120.677 137.5,119.5C 134.86,118.579 132.027,117.912 129,117.5C 127.93,117.528 127.097,117.861 126.5,118.5C 124.174,117.855 122.507,116.522 121.5,114.5 Z"/></g>
<g><path style="opacity:1" fill="#2c2e2d" d="M 7.5,123.5 C 4.76275,123.401 2.09609,123.735 -0.5,124.5C -0.5,123.167 -0.5,121.833 -0.5,120.5C 2.51838,120.665 5.51838,120.498 8.5,120C 9,119.5 9.5,119 10,118.5C 10.747,120.928 9.91366,122.594 7.5,123.5 Z"/></g>
<g><path style="opacity:1" fill="#686868" d="M 78.5,82.5 C 78.6849,89.9827 79.6849,97.316 81.5,104.5C 80.9033,104.735 80.5699,105.235 80.5,106C 84.381,117.713 91.381,126.047 101.5,131C 101.167,131.333 100.833,131.667 100.5,132C 102.167,132.333 103.833,132.667 105.5,133C 99.8926,134.323 94.226,135.323 88.5,136C 90.8333,136.333 93.1667,136.667 95.5,137C 93.3822,137.635 91.3822,138.469 89.5,139.5C 88.5581,139.392 87.7247,139.059 87,138.5C 83.8625,140.953 80.3625,142.953 76.5,144.5C 75.914,144.291 75.414,143.957 75,143.5C 74.5004,136.508 74.3337,129.508 74.5,122.5C 73.986,116.178 73.6527,109.845 73.5,103.5C 74.3279,97.3466 74.8279,91.0133 75,84.5C 75.6999,97.4983 76.3666,110.498 77,123.5C 77.3333,122.167 77.6667,120.833 78,119.5C 77.9735,106.994 78.1402,94.6612 78.5,82.5 Z"/></g>
<g><path style="opacity:1" fill="#757474" d="M 137.5,119.5 C 135.014,120.462 135.014,121.295 137.5,122C 142.253,122.617 146.92,123.617 151.5,125C 150.692,125.308 150.025,125.808 149.5,126.5C 151.145,127.696 152.811,128.696 154.5,129.5C 149.121,128.381 143.787,127.047 138.5,125.5C 134.69,124.412 131.023,123.079 127.5,121.5C 127.443,120.391 127.11,119.391 126.5,118.5C 127.097,117.861 127.93,117.528 129,117.5C 132.027,117.912 134.86,118.579 137.5,119.5 Z"/></g>
<g><path style="opacity:1" fill="#474848" d="M 81.5,104.5 C 83.6609,109.492 86.3276,114.159 89.5,118.5C 98.3725,128.234 109.372,132.9 122.5,132.5C 118.535,133.369 114.535,134.202 110.5,135C 111.634,136.016 111.301,136.683 109.5,137C 111.595,137.556 111.762,138.056 110,138.5C 108.775,138.138 107.609,137.638 106.5,137C 108.301,136.683 108.634,136.016 107.5,135C 105.365,134.365 103.365,134.699 101.5,136C 104.167,137.333 106.833,138.667 109.5,140C 105.301,140.528 101.301,141.361 97.5,142.5C 89.4739,143.408 81.4739,144.242 73.5,145C 69.8333,143.167 66.1667,141.333 62.5,139.5C 61.833,135.353 61.1663,131.353 60.5,127.5C 60.5,126.5 60.5,125.5 60.5,124.5C 59.1225,123.766 57.6225,123.099 56,122.5C 51.6614,124.022 47.1614,124.689 42.5,124.5C 31.8014,123.947 21.3014,124.947 11,127.5C 10.51,126.207 10.3433,124.873 10.5,123.5C 12.099,123.768 13.4324,123.434 14.5,122.5C 29.8511,121.704 45.1844,120.704 60.5,119.5C 60.5,118.5 60.5,117.5 60.5,116.5C 62.1238,116.64 63.2904,115.973 64,114.5C 66.9999,116.173 69.9999,116.84 73,116.5C 73.1909,118.708 73.6909,120.708 74.5,122.5C 74.3337,129.508 74.5004,136.508 75,143.5C 75.414,143.957 75.914,144.291 76.5,144.5C 80.3625,142.953 83.8625,140.953 87,138.5C 87.7247,139.059 88.5581,139.392 89.5,139.5C 91.3822,138.469 93.3822,137.635 95.5,137C 93.1667,136.667 90.8333,136.333 88.5,136C 94.226,135.323 99.8926,134.323 105.5,133C 103.833,132.667 102.167,132.333 100.5,132C 100.833,131.667 101.167,131.333 101.5,131C 91.381,126.047 84.381,117.713 80.5,106C 80.5699,105.235 80.9033,104.735 81.5,104.5 Z"/></g>
<g><path style="opacity:1" fill="#b9bbba" d="M 223.5,125.5 C 223.167,126.167 222.833,126.833 222.5,127.5C 215.521,126.337 208.521,125.17 201.5,124C 206.457,122.752 211.457,122.252 216.5,122.5C 218.76,123.912 221.093,124.912 223.5,125.5 Z"/></g>
<g><path style="opacity:1" fill="#757d7a" d="M 60.5,124.5 C 59.8485,125.091 59.1818,125.757 58.5,126.5C 57.914,126.291 57.414,125.957 57,125.5C 53.4453,127.065 49.612,128.065 45.5,128.5C 44.5,130.5 43.5,132.5 42.5,134.5C 41.675,135.386 40.675,135.719 39.5,135.5C 39.67,136.822 39.3366,137.989 38.5,139C 31.538,140.326 25.2047,142.993 19.5,147C 17.8876,147.72 16.3876,147.554 15,146.5C 14.5357,147.094 14.369,147.761 14.5,148.5C 14.5,149.5 14.5,150.5 14.5,151.5C 13.1779,151.33 12.0113,151.663 11,152.5C 8.73011,157.246 7.56344,162.246 7.5,167.5C 9.16667,167.5 10.8333,167.5 12.5,167.5C 12.4542,174.92 16.1209,178.753 23.5,179C 25.5844,179.697 27.2511,180.864 28.5,182.5C 18.8333,182.5 9.16667,182.5 -0.5,182.5C -0.5,171.167 -0.5,159.833 -0.5,148.5C 1.67901,148.16 3.51235,147.16 5,145.5C 6.01127,146.337 7.17793,146.67 8.5,146.5C 8.83333,144.5 9.16667,142.5 9.5,140.5C 10.5,140.5 11.5,140.5 12.5,140.5C 12.0725,137.436 11.4058,134.436 10.5,131.5C 11.5,131.5 12.5,131.5 13.5,131.5C 13.5,130.167 13.5,128.833 13.5,127.5C 19.5092,127.666 25.5092,127.499 31.5,127C 35.4651,126.892 39.1317,126.059 42.5,124.5C 47.1614,124.689 51.6614,124.022 56,122.5C 57.6225,123.099 59.1225,123.766 60.5,124.5 Z"/></g>
<g><path style="opacity:1" fill="#5f5d5e" d="M 137.5,119.5 C 147.785,120.677 157.785,122.677 167.5,125.5C 164.813,125.336 162.146,125.503 159.5,126C 161.473,126.495 163.473,126.662 165.5,126.5C 165.36,128.124 166.027,129.29 167.5,130C 164.854,130.497 162.187,130.664 159.5,130.5C 157.784,130.371 156.117,130.038 154.5,129.5C 152.811,128.696 151.145,127.696 149.5,126.5C 150.025,125.808 150.692,125.308 151.5,125C 146.92,123.617 142.253,122.617 137.5,122C 135.014,121.295 135.014,120.462 137.5,119.5 Z"/></g>
<g><path style="opacity:1" fill="#ababab" d="M 138.5,125.5 C 143.787,127.047 149.121,128.381 154.5,129.5C 156.117,130.038 157.784,130.371 159.5,130.5C 164.272,131.031 168.938,132.365 173.5,134.5C 171.051,136.776 169.218,139.442 168,142.5C 167.196,143.804 166.029,144.471 164.5,144.5C 156.727,142.112 149.06,139.446 141.5,136.5C 140.932,138.042 139.265,138.875 136.5,139C 139.5,139.333 142.5,139.667 145.5,140C 142.167,140.333 138.833,140.667 135.5,141C 142.757,140.883 149.757,141.883 156.5,144C 152.644,144.177 148.977,144.677 145.5,145.5C 144.21,144.942 143.377,143.942 143,142.5C 140.462,143.049 137.962,143.382 135.5,143.5C 134.077,141.455 132.077,140.455 129.5,140.5C 129.5,139.5 129.5,138.5 129.5,137.5C 123.567,137.121 122.901,134.954 127.5,131C 134.58,130.34 141.58,130.84 148.5,132.5C 150.167,132.167 151.833,131.833 153.5,131.5C 150.167,130.833 146.833,130.167 143.5,129.5C 141.414,128.511 139.747,127.178 138.5,125.5 Z"/></g>
<g><path style="opacity:1" fill="#6d6d6c" d="M 167.5,125.5 C 176.193,126.619 184.86,127.952 193.5,129.5C 196.176,129.163 198.843,128.83 201.5,128.5C 202.568,129.434 203.901,129.768 205.5,129.5C 205.5,130.5 205.5,131.5 205.5,132.5C 208.059,132.198 210.393,132.532 212.5,133.5C 209.862,135.418 208.195,138.085 207.5,141.5C 196.943,136.935 186.943,137.602 177.5,143.5C 176.761,143.369 176.094,143.536 175.5,144C 177.407,145.122 179.407,145.955 181.5,146.5C 182.132,149.492 183.799,150.159 186.5,148.5C 187.429,149.689 187.762,151.022 187.5,152.5C 183.298,152.817 179.298,152.483 175.5,151.5C 175.552,148.463 174.552,145.796 172.5,143.5C 170.664,144.028 168.997,144.694 167.5,145.5C 161.642,145.178 155.975,145.511 150.5,146.5C 148.883,145.962 147.216,145.629 145.5,145.5C 148.977,144.677 152.644,144.177 156.5,144C 149.757,141.883 142.757,140.883 135.5,141C 138.833,140.667 142.167,140.333 145.5,140C 142.5,139.667 139.5,139.333 136.5,139C 139.265,138.875 140.932,138.042 141.5,136.5C 149.06,139.446 156.727,142.112 164.5,144.5C 166.029,144.471 167.196,143.804 168,142.5C 169.218,139.442 171.051,136.776 173.5,134.5C 168.938,132.365 164.272,131.031 159.5,130.5C 162.187,130.664 164.854,130.497 167.5,130C 166.027,129.29 165.36,128.124 165.5,126.5C 163.473,126.662 161.473,126.495 159.5,126C 162.146,125.503 164.813,125.336 167.5,125.5 Z"/></g>
<g><path style="opacity:1" fill="#929291" d="M 201.5,128.5 C 211.696,129.755 221.696,131.422 231.5,133.5C 229.142,133.253 227.142,133.919 225.5,135.5C 221.087,135.313 216.754,134.646 212.5,133.5C 210.393,132.532 208.059,132.198 205.5,132.5C 205.5,131.5 205.5,130.5 205.5,129.5C 203.901,129.768 202.568,129.434 201.5,128.5 Z"/></g>
<g><path style="opacity:1" fill="#6f7069" d="M 255.5,131.5 C 256.5,131.5 257.5,131.5 258.5,131.5C 258.119,132.931 257.119,133.764 255.5,134C 256.448,134.483 257.448,134.649 258.5,134.5C 258.5,135.5 258.5,136.5 258.5,137.5C 254.551,137.693 254.551,138.193 258.5,139C 256.924,139.44 255.59,140.273 254.5,141.5C 252.885,140.846 251.218,140.346 249.5,140C 250.5,139.667 251.5,139.333 252.5,139C 250.299,138.175 248.466,138.675 247,140.5C 243.77,136.935 244.937,135.435 250.5,136C 243.123,133.97 235.79,134.137 228.5,136.5C 227.274,136.48 226.274,136.147 225.5,135.5C 227.142,133.919 229.142,133.253 231.5,133.5C 239.562,133.492 247.562,132.825 255.5,131.5 Z"/></g>
<g><path style="opacity:1" fill="#7d8583" d="M 60.5,124.5 C 60.5,125.5 60.5,126.5 60.5,127.5C 60.665,130.85 60.4983,134.183 60,137.5C 59.6667,137.167 59.3333,136.833 59,136.5C 58.5172,137.448 58.3505,138.448 58.5,139.5C 57.325,139.281 56.325,139.614 55.5,140.5C 57.0395,142.408 58.7061,144.075 60.5,145.5C 52.7405,147.693 44.7405,148.693 36.5,148.5C 32.1813,147.751 27.848,147.585 23.5,148C 20.9096,149.445 18.243,150.612 15.5,151.5C 15.7373,150.209 15.404,149.209 14.5,148.5C 14.369,147.761 14.5357,147.094 15,146.5C 16.3876,147.554 17.8876,147.72 19.5,147C 25.2047,142.993 31.538,140.326 38.5,139C 39.3366,137.989 39.67,136.822 39.5,135.5C 40.675,135.719 41.675,135.386 42.5,134.5C 43.5,132.5 44.5,130.5 45.5,128.5C 49.612,128.065 53.4453,127.065 57,125.5C 57.414,125.957 57.914,126.291 58.5,126.5C 59.1818,125.757 59.8485,125.091 60.5,124.5 Z"/></g>
<g><path style="opacity:1" fill="#525251" d="M 259.5,130.5 C 259.833,130.5 260.167,130.5 260.5,130.5C 260.5,147.833 260.5,165.167 260.5,182.5C 258.167,182.5 255.833,182.5 253.5,182.5C 252.26,181.027 251.26,179.36 250.5,177.5C 251.668,175.783 253.335,175.116 255.5,175.5C 255.34,173.801 255.506,172.134 256,170.5C 256.667,171.833 257.333,171.833 258,170.5C 258.497,167.854 258.664,165.187 258.5,162.5C 258.5,156.167 258.5,149.833 258.5,143.5C 248.02,147.691 237.353,148.358 226.5,145.5C 220.106,144.317 213.773,142.984 207.5,141.5C 208.195,138.085 209.862,135.418 212.5,133.5C 216.754,134.646 221.087,135.313 225.5,135.5C 226.274,136.147 227.274,136.48 228.5,136.5C 235.79,134.137 243.123,133.97 250.5,136C 244.937,135.435 243.77,136.935 247,140.5C 248.466,138.675 250.299,138.175 252.5,139C 251.5,139.333 250.5,139.667 249.5,140C 251.218,140.346 252.885,140.846 254.5,141.5C 255.59,140.273 256.924,139.44 258.5,139C 254.551,138.193 254.551,137.693 258.5,137.5C 258.5,136.5 258.5,135.5 258.5,134.5C 257.448,134.649 256.448,134.483 255.5,134C 257.119,133.764 258.119,132.931 258.5,131.5C 258.5,130.833 258.833,130.5 259.5,130.5 Z"/></g>
<g><path style="opacity:1" fill="#5d6260" d="M 7.5,123.5 C 6.43236,124.434 5.09903,124.768 3.5,124.5C 3.5,128.167 3.5,131.833 3.5,135.5C 5.16667,135.5 6.83333,135.5 8.5,135.5C 8.53866,131.267 9.20532,127.267 10.5,123.5C 10.3433,124.873 10.51,126.207 11,127.5C 21.3014,124.947 31.8014,123.947 42.5,124.5C 39.1317,126.059 35.4651,126.892 31.5,127C 25.5092,127.499 19.5092,127.666 13.5,127.5C 13.5,128.833 13.5,130.167 13.5,131.5C 12.5,131.5 11.5,131.5 10.5,131.5C 11.4058,134.436 12.0725,137.436 12.5,140.5C 11.5,140.5 10.5,140.5 9.5,140.5C 9.16667,142.5 8.83333,144.5 8.5,146.5C 7.17793,146.67 6.01127,146.337 5,145.5C 3.51235,147.16 1.67901,148.16 -0.5,148.5C -0.5,148.167 -0.5,147.833 -0.5,147.5C 0.434475,146.432 0.767809,145.099 0.5,143.5C 2.5,143.833 4.5,144.167 6.5,144.5C 6.68155,142.409 6.34822,140.409 5.5,138.5C 6.02527,137.808 6.69194,137.308 7.5,137C 6.83333,136.833 6.16667,136.667 5.5,136.5C 3.87418,138.452 1.87418,139.786 -0.5,140.5C -0.5,135.167 -0.5,129.833 -0.5,124.5C 2.09609,123.735 4.76275,123.401 7.5,123.5 Z"/></g>
<g><path style="opacity:1" fill="#616161" d="M 122.5,132.5 C 122.912,134.973 121.912,136.306 119.5,136.5C 113.014,137.776 113.014,138.442 119.5,138.5C 120.065,143.69 118.398,144.69 114.5,141.5C 108.914,143.488 103.247,143.822 97.5,142.5C 101.301,141.361 105.301,140.528 109.5,140C 106.833,138.667 104.167,137.333 101.5,136C 103.365,134.699 105.365,134.365 107.5,135C 108.634,136.016 108.301,136.683 106.5,137C 107.609,137.638 108.775,138.138 110,138.5C 111.762,138.056 111.595,137.556 109.5,137C 111.301,136.683 111.634,136.016 110.5,135C 114.535,134.202 118.535,133.369 122.5,132.5 Z"/></g>
<g><path style="opacity:1" fill="#121514" d="M -0.5,147.5 C -0.5,145.167 -0.5,142.833 -0.5,140.5C 1.87418,139.786 3.87418,138.452 5.5,136.5C 6.16667,136.667 6.83333,136.833 7.5,137C 6.69194,137.308 6.02527,137.808 5.5,138.5C 6.34822,140.409 6.68155,142.409 6.5,144.5C 4.5,144.167 2.5,143.833 0.5,143.5C 0.767809,145.099 0.434475,146.432 -0.5,147.5 Z"/></g>
<g><path style="opacity:1" fill="#727473" d="M 60.5,127.5 C 61.1663,131.353 61.833,135.353 62.5,139.5C 66.1667,141.333 69.8333,143.167 73.5,145C 81.4739,144.242 89.4739,143.408 97.5,142.5C 103.247,143.822 108.914,143.488 114.5,141.5C 118.398,144.69 120.065,143.69 119.5,138.5C 113.014,138.442 113.014,137.776 119.5,136.5C 120.11,137.391 120.443,138.391 120.5,139.5C 120.216,141.415 120.549,143.081 121.5,144.5C 120.442,146.041 118.942,147.041 117,147.5C 109.976,147.146 102.81,146.479 95.5,145.5C 92.6445,145.503 89.9779,145.836 87.5,146.5C 84.1109,147.203 80.7776,147.203 77.5,146.5C 76.3279,146.919 75.3279,147.585 74.5,148.5C 70.5548,147.732 66.5548,147.232 62.5,147C 61.9558,146.283 61.2891,145.783 60.5,145.5C 58.7061,144.075 57.0395,142.408 55.5,140.5C 56.325,139.614 57.325,139.281 58.5,139.5C 58.3505,138.448 58.5172,137.448 59,136.5C 59.3333,136.833 59.6667,137.167 60,137.5C 60.4983,134.183 60.665,130.85 60.5,127.5 Z"/></g>
<g><path style="opacity:1" fill="#bdbdb0" d="M 177.5,143.5 C 184.367,144.1 191.034,145.6 197.5,148C 198.598,148.77 198.598,149.603 197.5,150.5C 196.833,150.5 196.5,150.833 196.5,151.5C 194.784,151.629 193.117,151.962 191.5,152.5C 190.498,150.989 189.831,149.322 189.5,147.5C 186.763,147.599 184.096,147.265 181.5,146.5C 179.407,145.955 177.407,145.122 175.5,144C 176.094,143.536 176.761,143.369 177.5,143.5 Z"/></g>
<g><path style="opacity:1" fill="#969592" d="M 207.5,141.5 C 213.773,142.984 220.106,144.317 226.5,145.5C 227.953,146.825 227.619,147.658 225.5,148C 226.623,149.044 227.956,149.71 229.5,150C 227.564,150.813 225.564,151.313 223.5,151.5C 223.5,152.833 223.5,154.167 223.5,155.5C 216.069,158.183 208.735,158.017 201.5,155C 202.5,154.167 203.5,153.333 204.5,152.5C 202.223,151.579 199.89,150.913 197.5,150.5C 198.598,149.603 198.598,148.77 197.5,148C 191.034,145.6 184.367,144.1 177.5,143.5C 186.943,137.602 196.943,136.935 207.5,141.5 Z"/></g>
<g><path style="opacity:1" fill="#272824" d="M 150.5,146.5 C 155.975,145.511 161.642,145.178 167.5,145.5C 170.113,146.095 170.113,146.929 167.5,148C 163.812,148.45 160.146,148.283 156.5,147.5C 154.5,147.167 152.5,146.833 150.5,146.5 Z"/></g>
<g><path style="opacity:1" fill="#5a5b53" d="M 175.5,151.5 C 170.729,151.462 166.062,150.796 161.5,149.5C 159.597,149.204 157.93,148.537 156.5,147.5C 160.146,148.283 163.812,148.45 167.5,148C 170.113,146.929 170.113,146.095 167.5,145.5C 168.997,144.694 170.664,144.028 172.5,143.5C 174.552,145.796 175.552,148.463 175.5,151.5 Z"/></g>
<g><path style="opacity:1" fill="#848482" d="M 258.5,162.5 C 257.175,163.953 256.342,163.619 256,161.5C 253.741,162.536 251.408,162.536 249,161.5C 246.696,161.318 246.196,161.984 247.5,163.5C 244.914,164.48 242.247,164.813 239.5,164.5C 233.923,164.144 228.59,163.144 223.5,161.5C 223.5,159.5 223.5,157.5 223.5,155.5C 223.5,154.167 223.5,152.833 223.5,151.5C 225.564,151.313 227.564,150.813 229.5,150C 227.956,149.71 226.623,149.044 225.5,148C 227.619,147.658 227.953,146.825 226.5,145.5C 237.353,148.358 248.02,147.691 258.5,143.5C 258.5,149.833 258.5,156.167 258.5,162.5 Z"/></g>
<g><path style="opacity:1" fill="#848d8a" d="M 60.5,145.5 C 61.2891,145.783 61.9558,146.283 62.5,147C 66.5548,147.232 70.5548,147.732 74.5,148.5C 75.3279,147.585 76.3279,146.919 77.5,146.5C 80.7776,147.203 84.1109,147.203 87.5,146.5C 95.6372,148.173 103.637,149.839 111.5,151.5C 102.131,151.376 92.7977,150.709 83.5,149.5C 78.7813,149.022 75.448,150.856 73.5,155C 70.1832,155.498 66.8499,155.665 63.5,155.5C 64.5008,149.836 62.1675,147.502 56.5,148.5C 55.8333,148.5 55.5,148.833 55.5,149.5C 49.9738,149.179 44.6405,149.512 39.5,150.5C 38.1266,150.343 36.7932,150.51 35.5,151C 36.8333,151.667 36.8333,152.333 35.5,153C 31.5633,154.644 27.7299,156.477 24,158.5C 23.3333,161.833 23.3333,165.167 24,168.5C 30.4766,173.31 36.9766,177.977 43.5,182.5C 41.5,182.5 39.5,182.5 37.5,182.5C 35.8563,179.098 33.3563,177.764 30,178.5C 28.1397,176.799 25.973,175.799 23.5,175.5C 22.5,172.833 21.5,170.167 20.5,167.5C 18.396,167.799 16.396,167.466 14.5,166.5C 15.3742,164.253 15.7076,161.92 15.5,159.5C 19.5032,159.995 22.5032,158.495 24.5,155C 28.7136,152.888 32.7136,150.721 36.5,148.5C 44.7405,148.693 52.7405,147.693 60.5,145.5 Z"/></g>
<g><path style="opacity:1" fill="#8a9390" d="M 56.5,148.5 C 62.1675,147.502 64.5008,149.836 63.5,155.5C 64.0571,159.634 63.0571,163.301 60.5,166.5C 61.325,167.386 62.325,167.719 63.5,167.5C 63.6495,168.552 63.4828,169.552 63,170.5C 61.2529,173.036 59.4196,175.536 57.5,178C 53.668,177.962 50.168,178.795 47,180.5C 44.9285,179.475 42.7619,178.642 40.5,178C 37.7737,175.383 34.9403,172.883 32,170.5C 31.3333,166.167 31.3333,161.833 32,157.5C 34.0715,156.475 36.2381,155.642 38.5,155C 39.3802,153.644 39.7135,152.144 39.5,150.5C 44.6405,149.512 49.9738,149.179 55.5,149.5C 51.4552,151.177 47.1219,151.844 42.5,151.5C 42.5,154.167 42.5,156.833 42.5,159.5C 40.8762,159.64 39.7096,158.973 39,157.5C 37.4201,160.972 37.0867,164.638 38,168.5C 42.6285,170.457 45.6285,173.457 47,177.5C 47.4935,175.866 47.6602,174.199 47.5,172.5C 50.1667,172.5 52.8333,172.5 55.5,172.5C 55.3505,173.552 55.5172,174.552 56,175.5C 57.5555,173.557 58.7221,171.39 59.5,169C 60.2119,164.6 60.2119,160.1 59.5,155.5C 59.7163,153.616 60.383,151.949 61.5,150.5C 60.132,149.406 58.9653,149.74 58,151.5C 56.9614,150.756 56.4614,149.756 56.5,148.5 Z"/></g>
<g><path style="opacity:1" fill="#a2a2a3" d="M 120.5,139.5 C 125.517,140.84 130.517,142.173 135.5,143.5C 147.179,149.059 159.513,153.059 172.5,155.5C 171.167,157.167 171.167,158.833 172.5,160.5C 168.109,159.808 163.776,158.808 159.5,157.5C 148.177,153.724 136.843,149.724 125.5,145.5C 124.432,144.566 123.099,144.232 121.5,144.5C 120.549,143.081 120.216,141.415 120.5,139.5 Z"/></g>
<g><path style="opacity:1" fill="#bfbfbf" d="M 145.5,145.5 C 147.216,145.629 148.883,145.962 150.5,146.5C 152.5,146.833 154.5,147.167 156.5,147.5C 157.93,148.537 159.597,149.204 161.5,149.5C 166.655,152.082 171.988,154.082 177.5,155.5C 175.833,155.5 174.167,155.5 172.5,155.5C 159.513,153.059 147.179,149.059 135.5,143.5C 137.962,143.382 140.462,143.049 143,142.5C 143.377,143.942 144.21,144.942 145.5,145.5 Z"/></g>
<g><path style="opacity:1" fill="#87908d" d="M 111.5,151.5 C 111.5,152.833 111.5,154.167 111.5,155.5C 100.833,155.833 90.1667,156.167 79.5,156.5C 79.5,157.5 79.5,158.5 79.5,159.5C 81.1667,159.5 82.8333,159.5 84.5,159.5C 85.7834,162.01 86.7834,164.677 87.5,167.5C 85.5328,167.739 83.6995,167.406 82,166.5C 81.5065,168.134 81.3398,169.801 81.5,171.5C 82.5,171.5 83.5,171.5 84.5,171.5C 84.5,172.5 84.5,173.5 84.5,174.5C 85.552,174.351 86.552,174.517 87.5,175C 86.4829,176.049 86.3162,177.216 87,178.5C 88.8587,179.579 90.3587,180.912 91.5,182.5C 75.5,182.5 59.5,182.5 43.5,182.5C 36.9766,177.977 30.4766,173.31 24,168.5C 23.3333,165.167 23.3333,161.833 24,158.5C 27.7299,156.477 31.5633,154.644 35.5,153C 36.8333,152.333 36.8333,151.667 35.5,151C 36.7932,150.51 38.1266,150.343 39.5,150.5C 39.7135,152.144 39.3802,153.644 38.5,155C 36.2381,155.642 34.0715,156.475 32,157.5C 31.3333,161.833 31.3333,166.167 32,170.5C 34.9403,172.883 37.7737,175.383 40.5,178C 42.7619,178.642 44.9285,179.475 47,180.5C 50.168,178.795 53.668,177.962 57.5,178C 59.4196,175.536 61.2529,173.036 63,170.5C 63.4828,169.552 63.6495,168.552 63.5,167.5C 62.325,167.719 61.325,167.386 60.5,166.5C 63.0571,163.301 64.0571,159.634 63.5,155.5C 66.8499,155.665 70.1832,155.498 73.5,155C 75.448,150.856 78.7813,149.022 83.5,149.5C 92.7977,150.709 102.131,151.376 111.5,151.5 Z"/></g>
<g><path style="opacity:1" fill="#8e9794" d="M 56.5,148.5 C 56.4614,149.756 56.9614,150.756 58,151.5C 58.9653,149.74 60.132,149.406 61.5,150.5C 60.383,151.949 59.7163,153.616 59.5,155.5C 60.2119,160.1 60.2119,164.6 59.5,169C 58.7221,171.39 57.5555,173.557 56,175.5C 55.5172,174.552 55.3505,173.552 55.5,172.5C 52.8333,172.5 50.1667,172.5 47.5,172.5C 47.6602,174.199 47.4935,175.866 47,177.5C 45.6285,173.457 42.6285,170.457 38,168.5C 37.0867,164.638 37.4201,160.972 39,157.5C 39.7096,158.973 40.8762,159.64 42.5,159.5C 42.5,156.833 42.5,154.167 42.5,151.5C 47.1219,151.844 51.4552,151.177 55.5,149.5C 55.5,148.833 55.8333,148.5 56.5,148.5 Z"/></g>
<g><path style="opacity:1" fill="#989994" d="M 181.5,146.5 C 184.096,147.265 186.763,147.599 189.5,147.5C 189.831,149.322 190.498,150.989 191.5,152.5C 186.879,153.715 182.212,154.715 177.5,155.5C 171.988,154.082 166.655,152.082 161.5,149.5C 166.062,150.796 170.729,151.462 175.5,151.5C 179.298,152.483 183.298,152.817 187.5,152.5C 187.762,151.022 187.429,149.689 186.5,148.5C 183.799,150.159 182.132,149.492 181.5,146.5 Z"/></g>
<g><path style="opacity:1" fill="#929292" d="M 111.5,151.5 C 112.873,151.343 114.207,151.51 115.5,152C 118.618,154.907 121.951,157.407 125.5,159.5C 125.223,162.448 125.556,165.281 126.5,168C 124.532,169.544 122.365,170.711 120,171.5C 119.51,172.793 119.343,174.127 119.5,175.5C 116.212,175.927 113.212,175.26 110.5,173.5C 104.579,177.396 98.2459,178.229 91.5,176C 91.9574,175.586 92.2907,175.086 92.5,174.5C 91.3665,171.711 89.6999,169.378 87.5,167.5C 86.7834,164.677 85.7834,162.01 84.5,159.5C 82.8333,159.5 81.1667,159.5 79.5,159.5C 79.5,158.5 79.5,157.5 79.5,156.5C 90.1667,156.167 100.833,155.833 111.5,155.5C 111.5,154.167 111.5,152.833 111.5,151.5 Z"/></g>
<g><path style="opacity:1" fill="#7c8482" d="M 121.5,144.5 C 123.099,144.232 124.432,144.566 125.5,145.5C 124.325,145.281 123.325,145.614 122.5,146.5C 124.857,147.403 126.357,149.07 127,151.5C 128.388,150.446 129.888,150.28 131.5,151C 131.167,151.333 130.833,151.667 130.5,152C 131.729,153.529 133.229,154.696 135,155.5C 135.49,156.793 135.657,158.127 135.5,159.5C 138.167,159.5 140.833,159.5 143.5,159.5C 143.33,160.822 143.663,161.989 144.5,163C 149.324,165.169 154.324,166.669 159.5,167.5C 159.238,168.978 159.571,170.311 160.5,171.5C 164.863,174.789 169.863,176.456 175.5,176.5C 177.877,179.008 180.544,181.008 183.5,182.5C 166.833,182.5 150.167,182.5 133.5,182.5C 132.349,177.841 132.849,173.507 135,169.5C 135.333,169.833 135.667,170.167 136,170.5C 136.318,168.939 137.151,167.772 138.5,167C 135.5,165.333 133.167,163 131.5,160C 129.527,159.505 127.527,159.338 125.5,159.5C 121.951,157.407 118.618,154.907 115.5,152C 114.207,151.51 112.873,151.343 111.5,151.5C 103.637,149.839 95.6372,148.173 87.5,146.5C 89.9779,145.836 92.6445,145.503 95.5,145.5C 102.81,146.479 109.976,147.146 117,147.5C 118.942,147.041 120.442,146.041 121.5,144.5 Z"/></g>
<g><path style="opacity:1" fill="#78796c" d="M 223.5,161.5 C 228.59,163.144 233.923,164.144 239.5,164.5C 240.588,166 241.921,167.333 243.5,168.5C 242.167,169.167 240.833,169.833 239.5,170.5C 241.672,171.205 243.672,172.205 245.5,173.5C 244.619,174.971 243.286,175.804 241.5,176C 243.016,177.897 243.683,180.064 243.5,182.5C 228.5,182.5 213.5,182.5 198.5,182.5C 197.5,178.499 196.5,174.499 195.5,170.5C 197.185,171.184 198.185,172.517 198.5,174.5C 199.325,175.386 200.325,175.719 201.5,175.5C 201.33,176.822 201.663,177.989 202.5,179C 204.869,179.314 207.036,180.148 209,181.5C 214.857,180.425 220.691,179.259 226.5,178C 226.957,177.586 227.291,177.086 227.5,176.5C 224.914,175.52 222.247,175.187 219.5,175.5C 216.833,171.167 214.167,166.833 211.5,162.5C 215.481,161.979 219.481,161.646 223.5,161.5 Z"/></g>
<g><path style="opacity:1" fill="#5d5c5b" d="M 196.5,151.5 C 200.877,155.367 200.377,158.701 195,161.5C 194.956,164.475 195.123,167.475 195.5,170.5C 196.5,174.499 197.5,178.499 198.5,182.5C 196.833,182.5 195.167,182.5 193.5,182.5C 193.539,181.244 193.039,180.244 192,179.5C 190.951,180.517 189.784,180.684 188.5,180C 182.345,176.75 176.678,172.75 171.5,168C 172.902,166.658 172.569,165.824 170.5,165.5C 169.353,165.818 168.519,166.484 168,167.5C 167.28,165.888 167.446,164.388 168.5,163C 164.968,161.818 161.634,160.152 158.5,158C 158.728,157.601 159.062,157.435 159.5,157.5C 163.776,158.808 168.109,159.808 172.5,160.5C 171.167,158.833 171.167,157.167 172.5,155.5C 174.167,155.5 175.833,155.5 177.5,155.5C 182.212,154.715 186.879,153.715 191.5,152.5C 193.117,151.962 194.784,151.629 196.5,151.5 Z"/></g>
<g><path style="opacity:1" fill="#282828" d="M 172.5,160.5 C 180.369,160.355 188.036,159.022 195.5,156.5C 196.167,156.667 196.833,156.833 197.5,157C 195.655,158.128 193.655,158.628 191.5,158.5C 191.5,159.833 191.5,161.167 191.5,162.5C 188.421,162.26 185.421,162.593 182.5,163.5C 178.929,162.919 175.596,161.919 172.5,160.5 Z"/></g>
<g><path style="opacity:1" fill="#7f8885" d="M 36.5,148.5 C 32.7136,150.721 28.7136,152.888 24.5,155C 22.5032,158.495 19.5032,159.995 15.5,159.5C 15.7076,161.92 15.3742,164.253 14.5,166.5C 16.396,167.466 18.396,167.799 20.5,167.5C 21.5,170.167 22.5,172.833 23.5,175.5C 25.973,175.799 28.1397,176.799 30,178.5C 33.3563,177.764 35.8563,179.098 37.5,182.5C 34.5,182.5 31.5,182.5 28.5,182.5C 27.2511,180.864 25.5844,179.697 23.5,179C 16.1209,178.753 12.4542,174.92 12.5,167.5C 10.8333,167.5 9.16667,167.5 7.5,167.5C 7.56344,162.246 8.73011,157.246 11,152.5C 12.0113,151.663 13.1779,151.33 14.5,151.5C 14.5,150.5 14.5,149.5 14.5,148.5C 15.404,149.209 15.7373,150.209 15.5,151.5C 18.243,150.612 20.9096,149.445 23.5,148C 27.848,147.585 32.1813,147.751 36.5,148.5 Z"/></g>
<g><path style="opacity:1" fill="#898b8a" d="M 125.5,159.5 C 127.527,159.338 129.527,159.505 131.5,160C 133.167,163 135.5,165.333 138.5,167C 137.151,167.772 136.318,168.939 136,170.5C 135.667,170.167 135.333,169.833 135,169.5C 132.849,173.507 132.349,177.841 133.5,182.5C 119.5,182.5 105.5,182.5 91.5,182.5C 90.3587,180.912 88.8587,179.579 87,178.5C 86.3162,177.216 86.4829,176.049 87.5,175C 86.552,174.517 85.552,174.351 84.5,174.5C 84.5,173.5 84.5,172.5 84.5,171.5C 83.5,171.5 82.5,171.5 81.5,171.5C 81.3398,169.801 81.5065,168.134 82,166.5C 83.6995,167.406 85.5328,167.739 87.5,167.5C 89.6999,169.378 91.3665,171.711 92.5,174.5C 92.2907,175.086 91.9574,175.586 91.5,176C 98.2459,178.229 104.579,177.396 110.5,173.5C 113.212,175.26 116.212,175.927 119.5,175.5C 119.343,174.127 119.51,172.793 120,171.5C 122.365,170.711 124.532,169.544 126.5,168C 125.556,165.281 125.223,162.448 125.5,159.5 Z"/></g>
<g><path style="opacity:1" fill="#6a6b6b" d="M 125.5,145.5 C 136.843,149.724 148.177,153.724 159.5,157.5C 159.062,157.435 158.728,157.601 158.5,158C 161.634,160.152 164.968,161.818 168.5,163C 167.446,164.388 167.28,165.888 168,167.5C 168.519,166.484 169.353,165.818 170.5,165.5C 172.569,165.824 172.902,166.658 171.5,168C 176.678,172.75 182.345,176.75 188.5,180C 189.784,180.684 190.951,180.517 192,179.5C 193.039,180.244 193.539,181.244 193.5,182.5C 190.167,182.5 186.833,182.5 183.5,182.5C 180.544,181.008 177.877,179.008 175.5,176.5C 169.863,176.456 164.863,174.789 160.5,171.5C 159.571,170.311 159.238,168.978 159.5,167.5C 154.324,166.669 149.324,165.169 144.5,163C 143.663,161.989 143.33,160.822 143.5,159.5C 140.833,159.5 138.167,159.5 135.5,159.5C 135.657,158.127 135.49,156.793 135,155.5C 133.229,154.696 131.729,153.529 130.5,152C 130.833,151.667 131.167,151.333 131.5,151C 129.888,150.28 128.388,150.446 127,151.5C 126.357,149.07 124.857,147.403 122.5,146.5C 123.325,145.614 124.325,145.281 125.5,145.5 Z"/></g>
<g><path style="opacity:1" fill="#696a64" d="M 258.5,162.5 C 258.664,165.187 258.497,167.854 258,170.5C 257.333,171.833 256.667,171.833 256,170.5C 255.506,172.134 255.34,173.801 255.5,175.5C 253.335,175.116 251.668,175.783 250.5,177.5C 251.26,179.36 252.26,181.027 253.5,182.5C 250.167,182.5 246.833,182.5 243.5,182.5C 243.683,180.064 243.016,177.897 241.5,176C 243.286,175.804 244.619,174.971 245.5,173.5C 243.672,172.205 241.672,171.205 239.5,170.5C 240.833,169.833 242.167,169.167 243.5,168.5C 241.921,167.333 240.588,166 239.5,164.5C 242.247,164.813 244.914,164.48 247.5,163.5C 246.196,161.984 246.696,161.318 249,161.5C 251.408,162.536 253.741,162.536 256,161.5C 256.342,163.619 257.175,163.953 258.5,162.5 Z"/></g>
<g><path style="opacity:1" fill="#89877b" d="M 196.5,151.5 C 196.5,150.833 196.833,150.5 197.5,150.5C 199.89,150.913 202.223,151.579 204.5,152.5C 203.5,153.333 202.5,154.167 201.5,155C 208.735,158.017 216.069,158.183 223.5,155.5C 223.5,157.5 223.5,159.5 223.5,161.5C 219.481,161.646 215.481,161.979 211.5,162.5C 214.167,166.833 216.833,171.167 219.5,175.5C 222.247,175.187 224.914,175.52 227.5,176.5C 227.291,177.086 226.957,177.586 226.5,178C 220.691,179.259 214.857,180.425 209,181.5C 207.036,180.148 204.869,179.314 202.5,179C 201.663,177.989 201.33,176.822 201.5,175.5C 200.325,175.719 199.325,175.386 198.5,174.5C 198.185,172.517 197.185,171.184 195.5,170.5C 195.123,167.475 194.956,164.475 195,161.5C 200.377,158.701 200.877,155.367 196.5,151.5 Z"/></g>
</svg>
